G04 #@! TF.GenerationSoftware,KiCad,Pcbnew,6.0.2-378541a8eb~116~ubuntu20.04.1*
G04 #@! TF.CreationDate,2022-02-28T16:15:05+01:00*
G04 #@! TF.ProjectId,ISP_panel,4953505f-7061-46e6-956c-2e6b69636164,rev?*
G04 #@! TF.SameCoordinates,Original*
G04 #@! TF.FileFunction,Legend,Top*
G04 #@! TF.FilePolarity,Positive*
%FSLAX46Y46*%
G04 Gerber Fmt 4.6, Leading zero omitted, Abs format (unit mm)*
G04 Created by KiCad (PCBNEW 6.0.2-378541a8eb~116~ubuntu20.04.1) date 2022-02-28 16:15:05*
%MOMM*%
%LPD*%
G01*
G04 APERTURE LIST*
%ADD10C,0.300000*%
%ADD11C,0.080000*%
%ADD12C,0.100000*%
%ADD13C,0.150000*%
%ADD14C,0.120000*%
G04 APERTURE END LIST*
D10*
X34999996Y-84249996D02*
X29999996Y-76499996D01*
X68125003Y-54999997D02*
X63125003Y-57749997D01*
X71375003Y-54999997D02*
X68125003Y-54999997D01*
X71975003Y-40124997D02*
X68725003Y-40124997D01*
X65000003Y-83375003D02*
X65000003Y-80125003D01*
X68725003Y-40124997D02*
X66500003Y-40699997D01*
X65000003Y-80125003D02*
X63750003Y-76375003D01*
D11*
X65399622Y-48561901D02*
X65132955Y-48180949D01*
X64942479Y-48561901D02*
X64942479Y-47761901D01*
X65247241Y-47761901D01*
X65323431Y-47799997D01*
X65361526Y-47838092D01*
X65399622Y-47914282D01*
X65399622Y-48028568D01*
X65361526Y-48104758D01*
X65323431Y-48142854D01*
X65247241Y-48180949D01*
X64942479Y-48180949D01*
X65704383Y-48523806D02*
X65818669Y-48561901D01*
X66009145Y-48561901D01*
X66085336Y-48523806D01*
X66123431Y-48485711D01*
X66161526Y-48409520D01*
X66161526Y-48333330D01*
X66123431Y-48257139D01*
X66085336Y-48219044D01*
X66009145Y-48180949D01*
X65856764Y-48142854D01*
X65780574Y-48104758D01*
X65742479Y-48066663D01*
X65704383Y-47990473D01*
X65704383Y-47914282D01*
X65742479Y-47838092D01*
X65780574Y-47799997D01*
X65856764Y-47761901D01*
X66047241Y-47761901D01*
X66161526Y-47799997D01*
X66390098Y-47761901D02*
X66847241Y-47761901D01*
X66618669Y-48561901D02*
X66618669Y-47761901D01*
D12*
X50785710Y-53450710D02*
X50842853Y-53279281D01*
X50842853Y-52993567D01*
X50785710Y-52879281D01*
X50728567Y-52822138D01*
X50614281Y-52764996D01*
X50499996Y-52764996D01*
X50385710Y-52822138D01*
X50328567Y-52879281D01*
X50271424Y-52993567D01*
X50214281Y-53222138D01*
X50157138Y-53336424D01*
X50099996Y-53393567D01*
X49985710Y-53450710D01*
X49871424Y-53450710D01*
X49757138Y-53393567D01*
X49699996Y-53336424D01*
X49642853Y-53222138D01*
X49642853Y-52936424D01*
X49699996Y-52764996D01*
X50842853Y-52250710D02*
X49642853Y-52250710D01*
X49642853Y-51793567D01*
X49699996Y-51679281D01*
X49757138Y-51622138D01*
X49871424Y-51564996D01*
X50042853Y-51564996D01*
X50157138Y-51622138D01*
X50214281Y-51679281D01*
X50271424Y-51793567D01*
X50271424Y-52250710D01*
X50842853Y-51050710D02*
X49642853Y-51050710D01*
D11*
X62782098Y-76617479D02*
X63582098Y-76617479D01*
X63010669Y-76884145D01*
X63582098Y-77150812D01*
X62782098Y-77150812D01*
X62782098Y-77531764D02*
X63582098Y-77531764D01*
X62820193Y-77874622D02*
X62782098Y-77988907D01*
X62782098Y-78179383D01*
X62820193Y-78255574D01*
X62858288Y-78293669D01*
X62934479Y-78331764D01*
X63010669Y-78331764D01*
X63086860Y-78293669D01*
X63124955Y-78255574D01*
X63163050Y-78179383D01*
X63201145Y-78027003D01*
X63239241Y-77950812D01*
X63277336Y-77912717D01*
X63353526Y-77874622D01*
X63429717Y-77874622D01*
X63505907Y-77912717D01*
X63544003Y-77950812D01*
X63582098Y-78027003D01*
X63582098Y-78217479D01*
X63544003Y-78331764D01*
X63582098Y-78827003D02*
X63582098Y-78979383D01*
X63544003Y-79055574D01*
X63467812Y-79131764D01*
X63315431Y-79169860D01*
X63048764Y-79169860D01*
X62896383Y-79131764D01*
X62820193Y-79055574D01*
X62782098Y-78979383D01*
X62782098Y-78827003D01*
X62820193Y-78750812D01*
X62896383Y-78674622D01*
X63048764Y-78636526D01*
X63315431Y-78636526D01*
X63467812Y-78674622D01*
X63544003Y-78750812D01*
X63582098Y-78827003D01*
X62294098Y-76617479D02*
X61646479Y-76617479D01*
X61570288Y-76655574D01*
X61532193Y-76693669D01*
X61494098Y-76769860D01*
X61494098Y-76922241D01*
X61532193Y-76998431D01*
X61570288Y-77036526D01*
X61646479Y-77074622D01*
X62294098Y-77074622D01*
X61494098Y-77455574D02*
X62294098Y-77455574D01*
X62294098Y-77760336D01*
X62256003Y-77836526D01*
X62217907Y-77874622D01*
X62141717Y-77912717D01*
X62027431Y-77912717D01*
X61951241Y-77874622D01*
X61913145Y-77836526D01*
X61875050Y-77760336D01*
X61875050Y-77455574D01*
X61494098Y-78255574D02*
X62294098Y-78255574D01*
X62294098Y-78446050D01*
X62256003Y-78560336D01*
X62179812Y-78636526D01*
X62103622Y-78674622D01*
X61951241Y-78712717D01*
X61836955Y-78712717D01*
X61684574Y-78674622D01*
X61608383Y-78636526D01*
X61532193Y-78560336D01*
X61494098Y-78446050D01*
X61494098Y-78255574D01*
X61494098Y-79055574D02*
X62294098Y-79055574D01*
X64942479Y-47261901D02*
X64942479Y-46461901D01*
X65209145Y-47033330D01*
X65475812Y-46461901D01*
X65475812Y-47261901D01*
X66009145Y-46461901D02*
X66161526Y-46461901D01*
X66237717Y-46499997D01*
X66313907Y-46576187D01*
X66352003Y-46728568D01*
X66352003Y-46995235D01*
X66313907Y-47147616D01*
X66237717Y-47223806D01*
X66161526Y-47261901D01*
X66009145Y-47261901D01*
X65932955Y-47223806D01*
X65856764Y-47147616D01*
X65818669Y-46995235D01*
X65818669Y-46728568D01*
X65856764Y-46576187D01*
X65932955Y-46499997D01*
X66009145Y-46461901D01*
X66656764Y-47223806D02*
X66771050Y-47261901D01*
X66961526Y-47261901D01*
X67037717Y-47223806D01*
X67075812Y-47185711D01*
X67113907Y-47109520D01*
X67113907Y-47033330D01*
X67075812Y-46957139D01*
X67037717Y-46919044D01*
X66961526Y-46880949D01*
X66809145Y-46842854D01*
X66732955Y-46804758D01*
X66694860Y-46766663D01*
X66656764Y-46690473D01*
X66656764Y-46614282D01*
X66694860Y-46538092D01*
X66732955Y-46499997D01*
X66809145Y-46461901D01*
X66999622Y-46461901D01*
X67113907Y-46499997D01*
X67456764Y-47261901D02*
X67456764Y-46461901D01*
X65361526Y-42699997D02*
X65285336Y-42661901D01*
X65171050Y-42661901D01*
X65056764Y-42699997D01*
X64980574Y-42776187D01*
X64942479Y-42852377D01*
X64904383Y-43004758D01*
X64904383Y-43119044D01*
X64942479Y-43271425D01*
X64980574Y-43347616D01*
X65056764Y-43423806D01*
X65171050Y-43461901D01*
X65247241Y-43461901D01*
X65361526Y-43423806D01*
X65399622Y-43385711D01*
X65399622Y-43119044D01*
X65247241Y-43119044D01*
X65742479Y-43461901D02*
X65742479Y-42661901D01*
X66199622Y-43461901D01*
X66199622Y-42661901D01*
X66580574Y-43461901D02*
X66580574Y-42661901D01*
X66771050Y-42661901D01*
X66885336Y-42699997D01*
X66961526Y-42776187D01*
X66999622Y-42852377D01*
X67037717Y-43004758D01*
X67037717Y-43119044D01*
X66999622Y-43271425D01*
X66961526Y-43347616D01*
X66885336Y-43423806D01*
X66771050Y-43461901D01*
X66580574Y-43461901D01*
X65074622Y-61611901D02*
X64807955Y-61230949D01*
X64617479Y-61611901D02*
X64617479Y-60811901D01*
X64922241Y-60811901D01*
X64998431Y-60849997D01*
X65036526Y-60888092D01*
X65074622Y-60964282D01*
X65074622Y-61078568D01*
X65036526Y-61154758D01*
X64998431Y-61192854D01*
X64922241Y-61230949D01*
X64617479Y-61230949D01*
X65379383Y-61573806D02*
X65493669Y-61611901D01*
X65684145Y-61611901D01*
X65760336Y-61573806D01*
X65798431Y-61535711D01*
X65836526Y-61459520D01*
X65836526Y-61383330D01*
X65798431Y-61307139D01*
X65760336Y-61269044D01*
X65684145Y-61230949D01*
X65531764Y-61192854D01*
X65455574Y-61154758D01*
X65417479Y-61116663D01*
X65379383Y-61040473D01*
X65379383Y-60964282D01*
X65417479Y-60888092D01*
X65455574Y-60849997D01*
X65531764Y-60811901D01*
X65722241Y-60811901D01*
X65836526Y-60849997D01*
X66065098Y-60811901D02*
X66522241Y-60811901D01*
X66293669Y-61611901D02*
X66293669Y-60811901D01*
X59676193Y-76579383D02*
X59638098Y-76693669D01*
X59638098Y-76884145D01*
X59676193Y-76960336D01*
X59714288Y-76998431D01*
X59790479Y-77036526D01*
X59866669Y-77036526D01*
X59942860Y-76998431D01*
X59980955Y-76960336D01*
X60019050Y-76884145D01*
X60057145Y-76731764D01*
X60095241Y-76655574D01*
X60133336Y-76617479D01*
X60209526Y-76579383D01*
X60285717Y-76579383D01*
X60361907Y-76617479D01*
X60400003Y-76655574D01*
X60438098Y-76731764D01*
X60438098Y-76922241D01*
X60400003Y-77036526D01*
X59714288Y-77836526D02*
X59676193Y-77798431D01*
X59638098Y-77684145D01*
X59638098Y-77607955D01*
X59676193Y-77493669D01*
X59752383Y-77417479D01*
X59828574Y-77379383D01*
X59980955Y-77341288D01*
X60095241Y-77341288D01*
X60247622Y-77379383D01*
X60323812Y-77417479D01*
X60400003Y-77493669D01*
X60438098Y-77607955D01*
X60438098Y-77684145D01*
X60400003Y-77798431D01*
X60361907Y-77836526D01*
X59638098Y-78179383D02*
X60438098Y-78179383D01*
X59638098Y-78636526D02*
X60095241Y-78293669D01*
X60438098Y-78636526D02*
X59980955Y-78179383D01*
X64579383Y-60323806D02*
X64693669Y-60361901D01*
X64884145Y-60361901D01*
X64960336Y-60323806D01*
X64998431Y-60285711D01*
X65036526Y-60209520D01*
X65036526Y-60133330D01*
X64998431Y-60057139D01*
X64960336Y-60019044D01*
X64884145Y-59980949D01*
X64731764Y-59942854D01*
X64655574Y-59904758D01*
X64617479Y-59866663D01*
X64579383Y-59790473D01*
X64579383Y-59714282D01*
X64617479Y-59638092D01*
X64655574Y-59599997D01*
X64731764Y-59561901D01*
X64922241Y-59561901D01*
X65036526Y-59599997D01*
X65836526Y-60285711D02*
X65798431Y-60323806D01*
X65684145Y-60361901D01*
X65607955Y-60361901D01*
X65493669Y-60323806D01*
X65417479Y-60247616D01*
X65379383Y-60171425D01*
X65341288Y-60019044D01*
X65341288Y-59904758D01*
X65379383Y-59752377D01*
X65417479Y-59676187D01*
X65493669Y-59599997D01*
X65607955Y-59561901D01*
X65684145Y-59561901D01*
X65798431Y-59599997D01*
X65836526Y-59638092D01*
X66179383Y-60361901D02*
X66179383Y-59561901D01*
X66636526Y-60361901D02*
X66293669Y-59904758D01*
X66636526Y-59561901D02*
X66179383Y-60019044D01*
X64904383Y-44723806D02*
X65018669Y-44761901D01*
X65209145Y-44761901D01*
X65285336Y-44723806D01*
X65323431Y-44685711D01*
X65361526Y-44609520D01*
X65361526Y-44533330D01*
X65323431Y-44457139D01*
X65285336Y-44419044D01*
X65209145Y-44380949D01*
X65056764Y-44342854D01*
X64980574Y-44304758D01*
X64942479Y-44266663D01*
X64904383Y-44190473D01*
X64904383Y-44114282D01*
X64942479Y-44038092D01*
X64980574Y-43999997D01*
X65056764Y-43961901D01*
X65247241Y-43961901D01*
X65361526Y-43999997D01*
X66161526Y-44685711D02*
X66123431Y-44723806D01*
X66009145Y-44761901D01*
X65932955Y-44761901D01*
X65818669Y-44723806D01*
X65742479Y-44647616D01*
X65704383Y-44571425D01*
X65666288Y-44419044D01*
X65666288Y-44304758D01*
X65704383Y-44152377D01*
X65742479Y-44076187D01*
X65818669Y-43999997D01*
X65932955Y-43961901D01*
X66009145Y-43961901D01*
X66123431Y-43999997D01*
X66161526Y-44038092D01*
X66504383Y-44761901D02*
X66504383Y-43961901D01*
X66961526Y-44761901D02*
X66618669Y-44304758D01*
X66961526Y-43961901D02*
X66504383Y-44419044D01*
X64828193Y-41361901D02*
X65094860Y-42161901D01*
X65361526Y-41361901D01*
X66085336Y-42085711D02*
X66047241Y-42123806D01*
X65932955Y-42161901D01*
X65856764Y-42161901D01*
X65742479Y-42123806D01*
X65666288Y-42047616D01*
X65628193Y-41971425D01*
X65590098Y-41819044D01*
X65590098Y-41704758D01*
X65628193Y-41552377D01*
X65666288Y-41476187D01*
X65742479Y-41399997D01*
X65856764Y-41361901D01*
X65932955Y-41361901D01*
X66047241Y-41399997D01*
X66085336Y-41438092D01*
X66885336Y-42085711D02*
X66847241Y-42123806D01*
X66732955Y-42161901D01*
X66656764Y-42161901D01*
X66542479Y-42123806D01*
X66466288Y-42047616D01*
X66428193Y-41971425D01*
X66390098Y-41819044D01*
X66390098Y-41704758D01*
X66428193Y-41552377D01*
X66466288Y-41476187D01*
X66542479Y-41399997D01*
X66656764Y-41361901D01*
X66732955Y-41361901D01*
X66847241Y-41399997D01*
X66885336Y-41438092D01*
D12*
X49642853Y-46249281D02*
X50614281Y-46249281D01*
X50728567Y-46192138D01*
X50785710Y-46134996D01*
X50842853Y-46020710D01*
X50842853Y-45792138D01*
X50785710Y-45677853D01*
X50728567Y-45620710D01*
X50614281Y-45563567D01*
X49642853Y-45563567D01*
X50842853Y-44992138D02*
X49642853Y-44992138D01*
X49642853Y-44534996D01*
X49699996Y-44420710D01*
X49757138Y-44363567D01*
X49871424Y-44306424D01*
X50042853Y-44306424D01*
X50157138Y-44363567D01*
X50214281Y-44420710D01*
X50271424Y-44534996D01*
X50271424Y-44992138D01*
X50842853Y-43792138D02*
X49642853Y-43792138D01*
X49642853Y-43506424D01*
X49699996Y-43334996D01*
X49814281Y-43220710D01*
X49928567Y-43163567D01*
X50157138Y-43106424D01*
X50328567Y-43106424D01*
X50557138Y-43163567D01*
X50671424Y-43220710D01*
X50785710Y-43334996D01*
X50842853Y-43506424D01*
X50842853Y-43792138D01*
X50842853Y-42592138D02*
X49642853Y-42592138D01*
D11*
X64617479Y-57967901D02*
X64617479Y-57167901D01*
X64884145Y-57739330D01*
X65150812Y-57167901D01*
X65150812Y-57967901D01*
X65531764Y-57967901D02*
X65531764Y-57167901D01*
X65874622Y-57929806D02*
X65988907Y-57967901D01*
X66179383Y-57967901D01*
X66255574Y-57929806D01*
X66293669Y-57891711D01*
X66331764Y-57815520D01*
X66331764Y-57739330D01*
X66293669Y-57663139D01*
X66255574Y-57625044D01*
X66179383Y-57586949D01*
X66027003Y-57548854D01*
X65950812Y-57510758D01*
X65912717Y-57472663D01*
X65874622Y-57396473D01*
X65874622Y-57320282D01*
X65912717Y-57244092D01*
X65950812Y-57205997D01*
X66027003Y-57167901D01*
X66217479Y-57167901D01*
X66331764Y-57205997D01*
X66827003Y-57167901D02*
X66979383Y-57167901D01*
X67055574Y-57205997D01*
X67131764Y-57282187D01*
X67169860Y-57434568D01*
X67169860Y-57701235D01*
X67131764Y-57853616D01*
X67055574Y-57929806D01*
X66979383Y-57967901D01*
X66827003Y-57967901D01*
X66750812Y-57929806D01*
X66674622Y-57853616D01*
X66636526Y-57701235D01*
X66636526Y-57434568D01*
X66674622Y-57282187D01*
X66750812Y-57205997D01*
X66827003Y-57167901D01*
X64617479Y-58455901D02*
X64617479Y-59103520D01*
X64655574Y-59179711D01*
X64693669Y-59217806D01*
X64769860Y-59255901D01*
X64922241Y-59255901D01*
X64998431Y-59217806D01*
X65036526Y-59179711D01*
X65074622Y-59103520D01*
X65074622Y-58455901D01*
X65455574Y-59255901D02*
X65455574Y-58455901D01*
X65760336Y-58455901D01*
X65836526Y-58493997D01*
X65874622Y-58532092D01*
X65912717Y-58608282D01*
X65912717Y-58722568D01*
X65874622Y-58798758D01*
X65836526Y-58836854D01*
X65760336Y-58874949D01*
X65455574Y-58874949D01*
X66255574Y-59255901D02*
X66255574Y-58455901D01*
X66446050Y-58455901D01*
X66560336Y-58493997D01*
X66636526Y-58570187D01*
X66674622Y-58646377D01*
X66712717Y-58798758D01*
X66712717Y-58913044D01*
X66674622Y-59065425D01*
X66636526Y-59141616D01*
X66560336Y-59217806D01*
X66446050Y-59255901D01*
X66255574Y-59255901D01*
X67055574Y-59255901D02*
X67055574Y-58455901D01*
X57038098Y-76974622D02*
X57419050Y-76707955D01*
X57038098Y-76517479D02*
X57838098Y-76517479D01*
X57838098Y-76822241D01*
X57800003Y-76898431D01*
X57761907Y-76936526D01*
X57685717Y-76974622D01*
X57571431Y-76974622D01*
X57495241Y-76936526D01*
X57457145Y-76898431D01*
X57419050Y-76822241D01*
X57419050Y-76517479D01*
X57076193Y-77279383D02*
X57038098Y-77393669D01*
X57038098Y-77584145D01*
X57076193Y-77660336D01*
X57114288Y-77698431D01*
X57190479Y-77736526D01*
X57266669Y-77736526D01*
X57342860Y-77698431D01*
X57380955Y-77660336D01*
X57419050Y-77584145D01*
X57457145Y-77431764D01*
X57495241Y-77355574D01*
X57533336Y-77317479D01*
X57609526Y-77279383D01*
X57685717Y-77279383D01*
X57761907Y-77317479D01*
X57800003Y-77355574D01*
X57838098Y-77431764D01*
X57838098Y-77622241D01*
X57800003Y-77736526D01*
X57838098Y-77965098D02*
X57838098Y-78422241D01*
X57038098Y-78193669D02*
X57838098Y-78193669D01*
X64942479Y-45961901D02*
X64942479Y-45161901D01*
X65209145Y-45733330D01*
X65475812Y-45161901D01*
X65475812Y-45961901D01*
X65856764Y-45961901D02*
X65856764Y-45161901D01*
X66199622Y-45923806D02*
X66313907Y-45961901D01*
X66504383Y-45961901D01*
X66580574Y-45923806D01*
X66618669Y-45885711D01*
X66656764Y-45809520D01*
X66656764Y-45733330D01*
X66618669Y-45657139D01*
X66580574Y-45619044D01*
X66504383Y-45580949D01*
X66352003Y-45542854D01*
X66275812Y-45504758D01*
X66237717Y-45466663D01*
X66199622Y-45390473D01*
X66199622Y-45314282D01*
X66237717Y-45238092D01*
X66275812Y-45199997D01*
X66352003Y-45161901D01*
X66542479Y-45161901D01*
X66656764Y-45199997D01*
X67152003Y-45161901D02*
X67304383Y-45161901D01*
X67380574Y-45199997D01*
X67456764Y-45276187D01*
X67494860Y-45428568D01*
X67494860Y-45695235D01*
X67456764Y-45847616D01*
X67380574Y-45923806D01*
X67304383Y-45961901D01*
X67152003Y-45961901D01*
X67075812Y-45923806D01*
X66999622Y-45847616D01*
X66961526Y-45695235D01*
X66961526Y-45428568D01*
X66999622Y-45276187D01*
X67075812Y-45199997D01*
X67152003Y-45161901D01*
D13*
G04 #@! TO.C,C4*
X31757138Y-53766662D02*
X31804757Y-53814281D01*
X31852376Y-53957138D01*
X31852376Y-54052376D01*
X31804757Y-54195234D01*
X31709519Y-54290472D01*
X31614281Y-54338091D01*
X31423805Y-54385710D01*
X31280948Y-54385710D01*
X31090472Y-54338091D01*
X30995234Y-54290472D01*
X30899996Y-54195234D01*
X30852376Y-54052376D01*
X30852376Y-53957138D01*
X30899996Y-53814281D01*
X30947615Y-53766662D01*
X31185710Y-52909519D02*
X31852376Y-52909519D01*
X30804757Y-53147615D02*
X31519043Y-53385710D01*
X31519043Y-52766662D01*
G04 #@! TO.C,D2*
X33052376Y-73338091D02*
X32052376Y-73338091D01*
X32052376Y-73099996D01*
X32099996Y-72957138D01*
X32195234Y-72861900D01*
X32290472Y-72814281D01*
X32480948Y-72766662D01*
X32623805Y-72766662D01*
X32814281Y-72814281D01*
X32909519Y-72861900D01*
X33004757Y-72957138D01*
X33052376Y-73099996D01*
X33052376Y-73338091D01*
X32147615Y-72385710D02*
X32099996Y-72338091D01*
X32052376Y-72242853D01*
X32052376Y-72004757D01*
X32099996Y-71909519D01*
X32147615Y-71861900D01*
X32242853Y-71814281D01*
X32338091Y-71814281D01*
X32480948Y-71861900D01*
X33052376Y-72433329D01*
X33052376Y-71814281D01*
G04 #@! TO.C,SW1*
X44654757Y-50083329D02*
X44702376Y-49940472D01*
X44702376Y-49702376D01*
X44654757Y-49607138D01*
X44607138Y-49559519D01*
X44511900Y-49511900D01*
X44416662Y-49511900D01*
X44321424Y-49559519D01*
X44273805Y-49607138D01*
X44226186Y-49702376D01*
X44178567Y-49892853D01*
X44130948Y-49988091D01*
X44083329Y-50035710D01*
X43988091Y-50083329D01*
X43892853Y-50083329D01*
X43797615Y-50035710D01*
X43749996Y-49988091D01*
X43702376Y-49892853D01*
X43702376Y-49654757D01*
X43749996Y-49511900D01*
X43702376Y-49178567D02*
X44702376Y-48940472D01*
X43988091Y-48749996D01*
X44702376Y-48559519D01*
X43702376Y-48321424D01*
X44702376Y-47416662D02*
X44702376Y-47988091D01*
X44702376Y-47702376D02*
X43702376Y-47702376D01*
X43845234Y-47797615D01*
X43940472Y-47892853D01*
X43988091Y-47988091D01*
G04 #@! TO.C,R2*
X45333329Y-43152376D02*
X44999996Y-42676186D01*
X44761900Y-43152376D02*
X44761900Y-42152376D01*
X45142853Y-42152376D01*
X45238091Y-42199996D01*
X45285710Y-42247615D01*
X45333329Y-42342853D01*
X45333329Y-42485710D01*
X45285710Y-42580948D01*
X45238091Y-42628567D01*
X45142853Y-42676186D01*
X44761900Y-42676186D01*
X45714281Y-42247615D02*
X45761900Y-42199996D01*
X45857138Y-42152376D01*
X46095234Y-42152376D01*
X46190472Y-42199996D01*
X46238091Y-42247615D01*
X46285710Y-42342853D01*
X46285710Y-42438091D01*
X46238091Y-42580948D01*
X45666662Y-43152376D01*
X46285710Y-43152376D01*
G04 #@! TO.C,Q2*
X34904757Y-80947615D02*
X34809519Y-80899996D01*
X34714281Y-80804757D01*
X34571424Y-80661900D01*
X34476186Y-80614281D01*
X34380948Y-80614281D01*
X34428567Y-80852376D02*
X34333329Y-80804757D01*
X34238091Y-80709519D01*
X34190472Y-80519043D01*
X34190472Y-80185710D01*
X34238091Y-79995234D01*
X34333329Y-79899996D01*
X34428567Y-79852376D01*
X34619043Y-79852376D01*
X34714281Y-79899996D01*
X34809519Y-79995234D01*
X34857138Y-80185710D01*
X34857138Y-80519043D01*
X34809519Y-80709519D01*
X34714281Y-80804757D01*
X34619043Y-80852376D01*
X34428567Y-80852376D01*
X35238091Y-79947615D02*
X35285710Y-79899996D01*
X35380948Y-79852376D01*
X35619043Y-79852376D01*
X35714281Y-79899996D01*
X35761900Y-79947615D01*
X35809519Y-80042853D01*
X35809519Y-80138091D01*
X35761900Y-80280948D01*
X35190472Y-80852376D01*
X35809519Y-80852376D01*
G04 #@! TO.C,F1*
X47266662Y-36128567D02*
X46933329Y-36128567D01*
X46933329Y-36652376D02*
X46933329Y-35652376D01*
X47409519Y-35652376D01*
X48314281Y-36652376D02*
X47742853Y-36652376D01*
X48028567Y-36652376D02*
X48028567Y-35652376D01*
X47933329Y-35795234D01*
X47838091Y-35890472D01*
X47742853Y-35938091D01*
G04 #@! TO.C,C3*
X33433329Y-63757138D02*
X33385710Y-63804757D01*
X33242853Y-63852376D01*
X33147615Y-63852376D01*
X33004757Y-63804757D01*
X32909519Y-63709519D01*
X32861900Y-63614281D01*
X32814281Y-63423805D01*
X32814281Y-63280948D01*
X32861900Y-63090472D01*
X32909519Y-62995234D01*
X33004757Y-62899996D01*
X33147615Y-62852376D01*
X33242853Y-62852376D01*
X33385710Y-62899996D01*
X33433329Y-62947615D01*
X33766662Y-62852376D02*
X34385710Y-62852376D01*
X34052376Y-63233329D01*
X34195234Y-63233329D01*
X34290472Y-63280948D01*
X34338091Y-63328567D01*
X34385710Y-63423805D01*
X34385710Y-63661900D01*
X34338091Y-63757138D01*
X34290472Y-63804757D01*
X34195234Y-63852376D01*
X33909519Y-63852376D01*
X33814281Y-63804757D01*
X33766662Y-63757138D01*
G04 #@! TO.C,R4*
X49452376Y-61166662D02*
X48976186Y-61499996D01*
X49452376Y-61738091D02*
X48452376Y-61738091D01*
X48452376Y-61357138D01*
X48499996Y-61261900D01*
X48547615Y-61214281D01*
X48642853Y-61166662D01*
X48785710Y-61166662D01*
X48880948Y-61214281D01*
X48928567Y-61261900D01*
X48976186Y-61357138D01*
X48976186Y-61738091D01*
X48785710Y-60309519D02*
X49452376Y-60309519D01*
X48404757Y-60547615D02*
X49119043Y-60785710D01*
X49119043Y-60166662D01*
G04 #@! TO.C,D1*
X49452376Y-57738091D02*
X48452376Y-57738091D01*
X48452376Y-57499996D01*
X48499996Y-57357138D01*
X48595234Y-57261900D01*
X48690472Y-57214281D01*
X48880948Y-57166662D01*
X49023805Y-57166662D01*
X49214281Y-57214281D01*
X49309519Y-57261900D01*
X49404757Y-57357138D01*
X49452376Y-57499996D01*
X49452376Y-57738091D01*
X49452376Y-56214281D02*
X49452376Y-56785710D01*
X49452376Y-56499996D02*
X48452376Y-56499996D01*
X48595234Y-56595234D01*
X48690472Y-56690472D01*
X48738091Y-56785710D01*
G04 #@! TO.C,RN1*
X39309519Y-80852376D02*
X38976186Y-80376186D01*
X38738091Y-80852376D02*
X38738091Y-79852376D01*
X39119043Y-79852376D01*
X39214281Y-79899996D01*
X39261900Y-79947615D01*
X39309519Y-80042853D01*
X39309519Y-80185710D01*
X39261900Y-80280948D01*
X39214281Y-80328567D01*
X39119043Y-80376186D01*
X38738091Y-80376186D01*
X39738091Y-80852376D02*
X39738091Y-79852376D01*
X40309519Y-80852376D01*
X40309519Y-79852376D01*
X41309519Y-80852376D02*
X40738091Y-80852376D01*
X41023805Y-80852376D02*
X41023805Y-79852376D01*
X40928567Y-79995234D01*
X40833329Y-80090472D01*
X40738091Y-80138091D01*
G04 #@! TO.C,Q1*
X44904757Y-80947615D02*
X44809519Y-80899996D01*
X44714281Y-80804757D01*
X44571424Y-80661900D01*
X44476186Y-80614281D01*
X44380948Y-80614281D01*
X44428567Y-80852376D02*
X44333329Y-80804757D01*
X44238091Y-80709519D01*
X44190472Y-80519043D01*
X44190472Y-80185710D01*
X44238091Y-79995234D01*
X44333329Y-79899996D01*
X44428567Y-79852376D01*
X44619043Y-79852376D01*
X44714281Y-79899996D01*
X44809519Y-79995234D01*
X44857138Y-80185710D01*
X44857138Y-80519043D01*
X44809519Y-80709519D01*
X44714281Y-80804757D01*
X44619043Y-80852376D01*
X44428567Y-80852376D01*
X45809519Y-80852376D02*
X45238091Y-80852376D01*
X45523805Y-80852376D02*
X45523805Y-79852376D01*
X45428567Y-79995234D01*
X45333329Y-80090472D01*
X45238091Y-80138091D01*
G04 #@! TO.C,R5*
X33252376Y-47566662D02*
X32776186Y-47899996D01*
X33252376Y-48138091D02*
X32252376Y-48138091D01*
X32252376Y-47757138D01*
X32299996Y-47661900D01*
X32347615Y-47614281D01*
X32442853Y-47566662D01*
X32585710Y-47566662D01*
X32680948Y-47614281D01*
X32728567Y-47661900D01*
X32776186Y-47757138D01*
X32776186Y-48138091D01*
X32252376Y-46661900D02*
X32252376Y-47138091D01*
X32728567Y-47185710D01*
X32680948Y-47138091D01*
X32633329Y-47042853D01*
X32633329Y-46804757D01*
X32680948Y-46709519D01*
X32728567Y-46661900D01*
X32823805Y-46614281D01*
X33061900Y-46614281D01*
X33157138Y-46661900D01*
X33204757Y-46709519D01*
X33252376Y-46804757D01*
X33252376Y-47042853D01*
X33204757Y-47138091D01*
X33157138Y-47185710D01*
G04 #@! TO.C,C2*
X30457138Y-53766662D02*
X30504757Y-53814281D01*
X30552376Y-53957138D01*
X30552376Y-54052376D01*
X30504757Y-54195234D01*
X30409519Y-54290472D01*
X30314281Y-54338091D01*
X30123805Y-54385710D01*
X29980948Y-54385710D01*
X29790472Y-54338091D01*
X29695234Y-54290472D01*
X29599996Y-54195234D01*
X29552376Y-54052376D01*
X29552376Y-53957138D01*
X29599996Y-53814281D01*
X29647615Y-53766662D01*
X29647615Y-53385710D02*
X29599996Y-53338091D01*
X29552376Y-53242853D01*
X29552376Y-53004757D01*
X29599996Y-52909519D01*
X29647615Y-52861900D01*
X29742853Y-52814281D01*
X29838091Y-52814281D01*
X29980948Y-52861900D01*
X30552376Y-53433329D01*
X30552376Y-52814281D01*
G04 #@! TO.C,R8*
X34052376Y-50966662D02*
X33576186Y-51299996D01*
X34052376Y-51538091D02*
X33052376Y-51538091D01*
X33052376Y-51157138D01*
X33099996Y-51061900D01*
X33147615Y-51014281D01*
X33242853Y-50966662D01*
X33385710Y-50966662D01*
X33480948Y-51014281D01*
X33528567Y-51061900D01*
X33576186Y-51157138D01*
X33576186Y-51538091D01*
X33480948Y-50395234D02*
X33433329Y-50490472D01*
X33385710Y-50538091D01*
X33290472Y-50585710D01*
X33242853Y-50585710D01*
X33147615Y-50538091D01*
X33099996Y-50490472D01*
X33052376Y-50395234D01*
X33052376Y-50204757D01*
X33099996Y-50109519D01*
X33147615Y-50061900D01*
X33242853Y-50014281D01*
X33290472Y-50014281D01*
X33385710Y-50061900D01*
X33433329Y-50109519D01*
X33480948Y-50204757D01*
X33480948Y-50395234D01*
X33528567Y-50490472D01*
X33576186Y-50538091D01*
X33671424Y-50585710D01*
X33861900Y-50585710D01*
X33957138Y-50538091D01*
X34004757Y-50490472D01*
X34052376Y-50395234D01*
X34052376Y-50204757D01*
X34004757Y-50109519D01*
X33957138Y-50061900D01*
X33861900Y-50014281D01*
X33671424Y-50014281D01*
X33576186Y-50061900D01*
X33528567Y-50109519D01*
X33480948Y-50204757D01*
G04 #@! TO.C,U1*
X34838091Y-55052376D02*
X34838091Y-55861900D01*
X34885710Y-55957138D01*
X34933329Y-56004757D01*
X35028567Y-56052376D01*
X35219043Y-56052376D01*
X35314281Y-56004757D01*
X35361900Y-55957138D01*
X35409519Y-55861900D01*
X35409519Y-55052376D01*
X36409519Y-56052376D02*
X35838091Y-56052376D01*
X36123805Y-56052376D02*
X36123805Y-55052376D01*
X36028567Y-55195234D01*
X35933329Y-55290472D01*
X35838091Y-55338091D01*
G04 #@! TO.C,R9*
X35452376Y-50966662D02*
X34976186Y-51299996D01*
X35452376Y-51538091D02*
X34452376Y-51538091D01*
X34452376Y-51157138D01*
X34499996Y-51061900D01*
X34547615Y-51014281D01*
X34642853Y-50966662D01*
X34785710Y-50966662D01*
X34880948Y-51014281D01*
X34928567Y-51061900D01*
X34976186Y-51157138D01*
X34976186Y-51538091D01*
X35452376Y-50490472D02*
X35452376Y-50299996D01*
X35404757Y-50204757D01*
X35357138Y-50157138D01*
X35214281Y-50061900D01*
X35023805Y-50014281D01*
X34642853Y-50014281D01*
X34547615Y-50061900D01*
X34499996Y-50109519D01*
X34452376Y-50204757D01*
X34452376Y-50395234D01*
X34499996Y-50490472D01*
X34547615Y-50538091D01*
X34642853Y-50585710D01*
X34880948Y-50585710D01*
X34976186Y-50538091D01*
X35023805Y-50490472D01*
X35071424Y-50395234D01*
X35071424Y-50204757D01*
X35023805Y-50109519D01*
X34976186Y-50061900D01*
X34880948Y-50014281D01*
G04 #@! TO.C,SW2*
X44304757Y-72033329D02*
X44352376Y-71890472D01*
X44352376Y-71652376D01*
X44304757Y-71557138D01*
X44257138Y-71509519D01*
X44161900Y-71461900D01*
X44066662Y-71461900D01*
X43971424Y-71509519D01*
X43923805Y-71557138D01*
X43876186Y-71652376D01*
X43828567Y-71842853D01*
X43780948Y-71938091D01*
X43733329Y-71985710D01*
X43638091Y-72033329D01*
X43542853Y-72033329D01*
X43447615Y-71985710D01*
X43399996Y-71938091D01*
X43352376Y-71842853D01*
X43352376Y-71604757D01*
X43399996Y-71461900D01*
X43352376Y-71128567D02*
X44352376Y-70890472D01*
X43638091Y-70699996D01*
X44352376Y-70509519D01*
X43352376Y-70271424D01*
X43447615Y-69938091D02*
X43399996Y-69890472D01*
X43352376Y-69795234D01*
X43352376Y-69557138D01*
X43399996Y-69461900D01*
X43447615Y-69414281D01*
X43542853Y-69366662D01*
X43638091Y-69366662D01*
X43780948Y-69414281D01*
X44352376Y-69985710D01*
X44352376Y-69366662D01*
G04 #@! TO.C,R3*
X47433329Y-43152376D02*
X47099996Y-42676186D01*
X46861900Y-43152376D02*
X46861900Y-42152376D01*
X47242853Y-42152376D01*
X47338091Y-42199996D01*
X47385710Y-42247615D01*
X47433329Y-42342853D01*
X47433329Y-42485710D01*
X47385710Y-42580948D01*
X47338091Y-42628567D01*
X47242853Y-42676186D01*
X46861900Y-42676186D01*
X47766662Y-42152376D02*
X48385710Y-42152376D01*
X48052376Y-42533329D01*
X48195234Y-42533329D01*
X48290472Y-42580948D01*
X48338091Y-42628567D01*
X48385710Y-42723805D01*
X48385710Y-42961900D01*
X48338091Y-43057138D01*
X48290472Y-43104757D01*
X48195234Y-43152376D01*
X47909519Y-43152376D01*
X47814281Y-43104757D01*
X47766662Y-43057138D01*
G04 #@! TO.C,R6*
X31852376Y-47566662D02*
X31376186Y-47899996D01*
X31852376Y-48138091D02*
X30852376Y-48138091D01*
X30852376Y-47757138D01*
X30899996Y-47661900D01*
X30947615Y-47614281D01*
X31042853Y-47566662D01*
X31185710Y-47566662D01*
X31280948Y-47614281D01*
X31328567Y-47661900D01*
X31376186Y-47757138D01*
X31376186Y-48138091D01*
X30852376Y-46709519D02*
X30852376Y-46899996D01*
X30899996Y-46995234D01*
X30947615Y-47042853D01*
X31090472Y-47138091D01*
X31280948Y-47185710D01*
X31661900Y-47185710D01*
X31757138Y-47138091D01*
X31804757Y-47090472D01*
X31852376Y-46995234D01*
X31852376Y-46804757D01*
X31804757Y-46709519D01*
X31757138Y-46661900D01*
X31661900Y-46614281D01*
X31423805Y-46614281D01*
X31328567Y-46661900D01*
X31280948Y-46709519D01*
X31233329Y-46804757D01*
X31233329Y-46995234D01*
X31280948Y-47090472D01*
X31328567Y-47138091D01*
X31423805Y-47185710D01*
G04 #@! TO.C,IC1*
X33723805Y-43752376D02*
X33723805Y-42752376D01*
X34771424Y-43657138D02*
X34723805Y-43704757D01*
X34580948Y-43752376D01*
X34485710Y-43752376D01*
X34342853Y-43704757D01*
X34247615Y-43609519D01*
X34199996Y-43514281D01*
X34152376Y-43323805D01*
X34152376Y-43180948D01*
X34199996Y-42990472D01*
X34247615Y-42895234D01*
X34342853Y-42799996D01*
X34485710Y-42752376D01*
X34580948Y-42752376D01*
X34723805Y-42799996D01*
X34771424Y-42847615D01*
X35723805Y-43752376D02*
X35152376Y-43752376D01*
X35438091Y-43752376D02*
X35438091Y-42752376D01*
X35342853Y-42895234D01*
X35247615Y-42990472D01*
X35152376Y-43038091D01*
G04 #@! TO.C,R7*
X34233329Y-66652376D02*
X33899996Y-66176186D01*
X33661900Y-66652376D02*
X33661900Y-65652376D01*
X34042853Y-65652376D01*
X34138091Y-65699996D01*
X34185710Y-65747615D01*
X34233329Y-65842853D01*
X34233329Y-65985710D01*
X34185710Y-66080948D01*
X34138091Y-66128567D01*
X34042853Y-66176186D01*
X33661900Y-66176186D01*
X34566662Y-65652376D02*
X35233329Y-65652376D01*
X34804757Y-66652376D01*
G04 #@! TO.C,R1*
X38933329Y-44252376D02*
X38599996Y-43776186D01*
X38361900Y-44252376D02*
X38361900Y-43252376D01*
X38742853Y-43252376D01*
X38838091Y-43299996D01*
X38885710Y-43347615D01*
X38933329Y-43442853D01*
X38933329Y-43585710D01*
X38885710Y-43680948D01*
X38838091Y-43728567D01*
X38742853Y-43776186D01*
X38361900Y-43776186D01*
X39885710Y-44252376D02*
X39314281Y-44252376D01*
X39599996Y-44252376D02*
X39599996Y-43252376D01*
X39504757Y-43395234D01*
X39409519Y-43490472D01*
X39314281Y-43538091D01*
G04 #@! TO.C,Y1*
X31323805Y-60576186D02*
X31323805Y-61052376D01*
X30990472Y-60052376D02*
X31323805Y-60576186D01*
X31657138Y-60052376D01*
X32514281Y-61052376D02*
X31942853Y-61052376D01*
X32228567Y-61052376D02*
X32228567Y-60052376D01*
X32133329Y-60195234D01*
X32038091Y-60290472D01*
X31942853Y-60338091D01*
G04 #@! TO.C,C1*
X40283329Y-53957138D02*
X40235710Y-54004757D01*
X40092853Y-54052376D01*
X39997615Y-54052376D01*
X39854757Y-54004757D01*
X39759519Y-53909519D01*
X39711900Y-53814281D01*
X39664281Y-53623805D01*
X39664281Y-53480948D01*
X39711900Y-53290472D01*
X39759519Y-53195234D01*
X39854757Y-53099996D01*
X39997615Y-53052376D01*
X40092853Y-53052376D01*
X40235710Y-53099996D01*
X40283329Y-53147615D01*
X41235710Y-54052376D02*
X40664281Y-54052376D01*
X40949996Y-54052376D02*
X40949996Y-53052376D01*
X40854757Y-53195234D01*
X40759519Y-53290472D01*
X40664281Y-53338091D01*
G04 #@! TO.C,R10*
X36852376Y-51442853D02*
X36376186Y-51776186D01*
X36852376Y-52014281D02*
X35852376Y-52014281D01*
X35852376Y-51633329D01*
X35899996Y-51538091D01*
X35947615Y-51490472D01*
X36042853Y-51442853D01*
X36185710Y-51442853D01*
X36280948Y-51490472D01*
X36328567Y-51538091D01*
X36376186Y-51633329D01*
X36376186Y-52014281D01*
X36852376Y-50490472D02*
X36852376Y-51061900D01*
X36852376Y-50776186D02*
X35852376Y-50776186D01*
X35995234Y-50871424D01*
X36090472Y-50966662D01*
X36138091Y-51061900D01*
X35852376Y-49871424D02*
X35852376Y-49776186D01*
X35899996Y-49680948D01*
X35947615Y-49633329D01*
X36042853Y-49585710D01*
X36233329Y-49538091D01*
X36471424Y-49538091D01*
X36661900Y-49585710D01*
X36757138Y-49633329D01*
X36804757Y-49680948D01*
X36852376Y-49776186D01*
X36852376Y-49871424D01*
X36804757Y-49966662D01*
X36757138Y-50014281D01*
X36661900Y-50061900D01*
X36471424Y-50109519D01*
X36233329Y-50109519D01*
X36042853Y-50061900D01*
X35947615Y-50014281D01*
X35899996Y-49966662D01*
X35852376Y-49871424D01*
D14*
G04 #@! TO.C,C4*
X36359416Y-53089996D02*
X36640576Y-53089996D01*
X36359416Y-54109996D02*
X36640576Y-54109996D01*
G04 #@! TO.C,D2*
X35399996Y-70349996D02*
X33399996Y-70349996D01*
X35399996Y-70349996D02*
X35399996Y-74249996D01*
X33399996Y-70349996D02*
X33399996Y-74249996D01*
D13*
G04 #@! TO.C,SW1*
X49499996Y-52899996D02*
X49499996Y-50699996D01*
X44899996Y-52899996D02*
X44899996Y-44299996D01*
X49499996Y-46599996D02*
X49499996Y-44299996D01*
D14*
G04 #@! TO.C,R2*
X42722496Y-43562738D02*
X42722496Y-44037254D01*
X41677496Y-43562738D02*
X41677496Y-44037254D01*
G04 #@! TO.C,Q2*
X33439996Y-77799996D02*
X33439996Y-78449996D01*
X33439996Y-77799996D02*
X33439996Y-77149996D01*
X36559996Y-77799996D02*
X36559996Y-76124996D01*
X36559996Y-77799996D02*
X36559996Y-78449996D01*
G04 #@! TO.C,F1*
X46689996Y-39802060D02*
X46689996Y-38597932D01*
X48509996Y-39802060D02*
X48509996Y-38597932D01*
G04 #@! TO.C,C3*
X33089996Y-61084416D02*
X33089996Y-61365576D01*
X34109996Y-61084416D02*
X34109996Y-61365576D01*
G04 #@! TO.C,R4*
X46477496Y-61237254D02*
X46477496Y-60762738D01*
X47522496Y-61237254D02*
X47522496Y-60762738D01*
G04 #@! TO.C,D1*
X45999996Y-54749996D02*
X45999996Y-58649996D01*
X47999996Y-54749996D02*
X47999996Y-58649996D01*
X47999996Y-54749996D02*
X45999996Y-54749996D01*
G04 #@! TO.C,RN1*
X38319996Y-78299996D02*
X38319996Y-77299996D01*
X41679996Y-78299996D02*
X41679996Y-77299996D01*
G04 #@! TO.C,Q1*
X46559996Y-77799996D02*
X46559996Y-78449996D01*
X43439996Y-77799996D02*
X43439996Y-77149996D01*
X43439996Y-77799996D02*
X43439996Y-78449996D01*
X46559996Y-77799996D02*
X46559996Y-76124996D01*
G04 #@! TO.C,R5*
X36322496Y-47162738D02*
X36322496Y-47637254D01*
X35277496Y-47162738D02*
X35277496Y-47637254D01*
G04 #@! TO.C,C2*
X33640576Y-54109996D02*
X33359416Y-54109996D01*
X33640576Y-53089996D02*
X33359416Y-53089996D01*
G04 #@! TO.C,D4*
X40959996Y-45714996D02*
X39039996Y-45714996D01*
X40959996Y-48399996D02*
X40959996Y-45714996D01*
X39039996Y-45714996D02*
X39039996Y-48399996D01*
G04 #@! TO.C,R8*
X38322496Y-51037254D02*
X38322496Y-50562738D01*
X37277496Y-51037254D02*
X37277496Y-50562738D01*
D13*
G04 #@! TO.C,U1*
X36374996Y-56599996D02*
X34949996Y-56599996D01*
X43624996Y-63624996D02*
X43624996Y-63299996D01*
X36374996Y-63624996D02*
X36374996Y-63299996D01*
X36374996Y-56374996D02*
X36374996Y-56599996D01*
X43624996Y-56374996D02*
X43624996Y-56699996D01*
X36374996Y-56374996D02*
X36699996Y-56374996D01*
X43624996Y-63624996D02*
X43299996Y-63624996D01*
X36374996Y-63624996D02*
X36699996Y-63624996D01*
X43624996Y-56374996D02*
X43299996Y-56374996D01*
D14*
G04 #@! TO.C,D3*
X38759996Y-48399996D02*
X38759996Y-45714996D01*
X38759996Y-45714996D02*
X36839996Y-45714996D01*
X36839996Y-45714996D02*
X36839996Y-48399996D01*
G04 #@! TO.C,R9*
X39477496Y-51037254D02*
X39477496Y-50562738D01*
X40522496Y-51037254D02*
X40522496Y-50562738D01*
G04 #@! TO.C,SW2*
X41349996Y-73849996D02*
X38649996Y-73849996D01*
X43099996Y-67549996D02*
X43099996Y-73849996D01*
X36899996Y-73849996D02*
X37299996Y-73849996D01*
X38649996Y-67549996D02*
X41349996Y-67549996D01*
X43099996Y-73849996D02*
X42649996Y-73849996D01*
X37349996Y-67549996D02*
X36899996Y-67549996D01*
X42649996Y-67549996D02*
X43099996Y-67549996D01*
X36899996Y-67549996D02*
X36899996Y-73849996D01*
G04 #@! TO.C,R3*
X44222496Y-43562738D02*
X44222496Y-44037254D01*
X43177496Y-43562738D02*
X43177496Y-44037254D01*
G04 #@! TO.C,D5*
X43159996Y-48399996D02*
X43159996Y-45714996D01*
X41239996Y-45714996D02*
X41239996Y-48399996D01*
X43159996Y-45714996D02*
X41239996Y-45714996D01*
G04 #@! TO.C,R6*
X33677496Y-47162738D02*
X33677496Y-47637254D01*
X34722496Y-47162738D02*
X34722496Y-47637254D01*
G04 #@! TO.C,IC1*
X37999996Y-44199996D02*
X36449996Y-44199996D01*
X36449996Y-42399996D02*
X37749996Y-42399996D01*
G04 #@! TO.C,R7*
X33877496Y-68637254D02*
X33877496Y-68162738D01*
X34922496Y-68637254D02*
X34922496Y-68162738D01*
G04 #@! TO.C,R1*
X41222496Y-43562738D02*
X41222496Y-44037254D01*
X40177496Y-43562738D02*
X40177496Y-44037254D01*
G04 #@! TO.C,J9*
X44594996Y-38624996D02*
X44594996Y-37724996D01*
X44474996Y-41704996D02*
X35524996Y-41704996D01*
X44594996Y-32294996D02*
X35404996Y-32294996D01*
X35404996Y-35024996D02*
X35404996Y-32294996D01*
X35404996Y-38624996D02*
X35404996Y-37724996D01*
X44594996Y-35024996D02*
X44594996Y-32294996D01*
G04 #@! TO.C,Y1*
X31199996Y-55799996D02*
X31199996Y-55949996D01*
X33199996Y-55799996D02*
X33599996Y-55799996D01*
X31199996Y-59599996D02*
X33199996Y-59599996D01*
X33599996Y-55799996D02*
X33599996Y-55949996D01*
X31199996Y-59399996D02*
X31199996Y-59249996D01*
X33599996Y-59399996D02*
X33599996Y-59249996D01*
X31199996Y-55799996D02*
X33199996Y-55799996D01*
X33199996Y-59599996D02*
X33599996Y-59599996D01*
X33599996Y-58349996D02*
X33999996Y-58349996D01*
X33199996Y-59399996D02*
X31199996Y-59399996D01*
X33199996Y-59399996D02*
X33599996Y-59399996D01*
X33599996Y-58349996D02*
X33599996Y-58399996D01*
G04 #@! TO.C,C1*
X42684416Y-53089996D02*
X42965576Y-53089996D01*
X42684416Y-54109996D02*
X42965576Y-54109996D01*
G04 #@! TO.C,R10*
X42722496Y-51037254D02*
X42722496Y-50562738D01*
X41677496Y-51037254D02*
X41677496Y-50562738D01*
G04 #@! TD*
M02*
