G04 #@! TF.GenerationSoftware,KiCad,Pcbnew,6.0.2-378541a8eb~116~ubuntu20.04.1*
G04 #@! TF.CreationDate,2022-02-28T16:15:05+01:00*
G04 #@! TF.ProjectId,ISP_panel,4953505f-7061-46e6-956c-2e6b69636164,rev?*
G04 #@! TF.SameCoordinates,Original*
G04 #@! TF.FileFunction,Profile,NP*
%FSLAX46Y46*%
G04 Gerber Fmt 4.6, Leading zero omitted, Abs format (unit mm)*
G04 Created by KiCad (PCBNEW 6.0.2-378541a8eb~116~ubuntu20.04.1) date 2022-02-28 16:15:05*
%MOMM*%
%LPD*%
G01*
G04 APERTURE LIST*
G04 #@! TA.AperFunction,Profile*
%ADD10C,0.100000*%
G04 #@! TD*
G04 APERTURE END LIST*
D10*
X73141363Y-43056637D02*
X73095825Y-42999738D01*
X57790465Y-86619078D02*
X57743544Y-86674842D01*
X74077252Y-43385421D02*
X74029186Y-43392550D01*
X38942123Y-34342520D02*
X38924636Y-34387856D01*
X60874858Y-49005750D02*
X60946941Y-49015521D01*
X74848032Y-48079452D02*
X74862137Y-48125951D01*
X27086933Y-86411188D02*
X27068337Y-86366295D01*
X27775089Y-86975944D02*
X27727954Y-86964137D01*
X74029186Y-62007443D02*
X74077252Y-62014572D01*
X42892959Y-85005767D02*
X42965700Y-85001298D01*
X53109000Y-49001000D02*
X60777941Y-49001000D01*
X74878976Y-33796860D02*
X74890553Y-33868813D01*
X73697860Y-43380973D02*
X73626954Y-43364134D01*
X74395968Y-47528611D02*
X74458014Y-47566842D01*
X74497741Y-57805171D02*
X74458014Y-57833151D01*
X57871388Y-86497968D02*
X57833157Y-86560014D01*
X62010719Y-86155263D02*
X62002686Y-86082828D01*
X72880449Y-62029666D02*
X72927860Y-62019020D01*
X72901298Y-42434292D02*
X72901000Y-39009000D01*
X72121000Y-53999000D02*
X68130194Y-53999263D01*
X47993863Y-34999000D02*
X42990057Y-34999000D01*
X38819404Y-85420950D02*
X38846400Y-85461352D01*
X42307351Y-34726004D02*
X42272991Y-34691644D01*
X21003928Y-27001928D02*
X21001000Y-27009000D01*
X46000483Y-84999347D02*
X46004200Y-84995165D01*
X73095825Y-42999738D02*
X73067845Y-42960011D01*
X49890151Y-71614266D02*
X49733693Y-69824618D01*
X42035858Y-86274045D02*
X42024051Y-86226910D01*
X42361947Y-34774279D02*
X42307351Y-34726004D01*
X42128610Y-85503031D02*
X42153591Y-85461352D01*
X38560010Y-85167845D02*
X38599737Y-85195825D01*
X74802948Y-62566717D02*
X74822640Y-62611140D01*
X60715172Y-57941341D02*
X60645814Y-57963270D01*
X73907938Y-47399997D02*
X73956576Y-47401190D01*
X42965700Y-85001298D02*
X45995128Y-85000982D01*
X38997312Y-33917171D02*
X38999996Y-33990061D01*
X38933658Y-86366295D02*
X38904944Y-86433279D01*
X27003193Y-33941423D02*
X27006767Y-33892963D01*
X38775275Y-33361951D02*
X38819404Y-33419950D01*
X74840127Y-62656476D02*
X74862137Y-62725951D01*
X42272991Y-34691644D02*
X42224716Y-34637048D01*
X27107708Y-86455114D02*
X27086933Y-86411188D01*
X56499362Y-65886332D02*
X56499000Y-72224056D01*
X38871381Y-85503031D02*
X38894287Y-85545885D01*
X56496433Y-72295344D02*
X56488749Y-72366202D01*
X72975736Y-62010713D02*
X73048171Y-62002680D01*
X42289960Y-86710035D02*
X42240359Y-86656640D01*
X57155266Y-86989283D02*
X57107039Y-86995232D01*
X72764704Y-57933659D02*
X72697720Y-57904945D01*
X57433282Y-84226051D02*
X57497971Y-84259614D01*
X72121000Y-66001000D02*
X72125928Y-65999700D01*
X42400254Y-34804174D02*
X42361947Y-34774279D01*
X38998802Y-86058576D02*
X38995228Y-86107036D01*
X74241520Y-43342124D02*
X74195381Y-43357367D01*
X42749445Y-86970330D02*
X42679451Y-86950032D01*
X74890553Y-33868813D02*
X74896806Y-33941423D01*
X38997312Y-34081828D02*
X38989279Y-34154263D01*
X42000294Y-86034295D02*
X42000294Y-85966704D01*
X53879000Y-61991000D02*
X53881928Y-61998071D01*
X42002679Y-34081828D02*
X42000294Y-34033295D01*
X74478049Y-62180588D02*
X74536048Y-62224717D01*
X56451173Y-72528106D02*
X53999272Y-80129403D01*
X72420964Y-62289961D02*
X72456157Y-62256455D01*
X73907938Y-87000000D02*
X62990064Y-87000000D01*
X74077252Y-62014572D02*
X74124910Y-62024052D01*
X80896409Y-27002284D02*
X80889000Y-26999000D01*
X73580455Y-43350029D02*
X73534704Y-43333659D01*
X62105711Y-84675885D02*
X62128617Y-84633031D01*
X60503211Y-62008418D02*
X60575033Y-62019952D01*
X60382188Y-57999000D02*
X53889000Y-57999000D01*
X38915062Y-85589811D02*
X38933658Y-85634704D01*
X50535101Y-60735318D02*
X51000943Y-58999152D01*
X21001000Y-92991000D02*
X21003590Y-92997715D01*
X62749452Y-84160669D02*
X62820750Y-84145575D01*
X27727954Y-86964137D02*
X27681455Y-86950032D01*
X74757150Y-33481038D02*
X74792291Y-33544885D01*
X51000943Y-58999152D02*
X51000933Y-38002882D01*
X74218544Y-33049967D02*
X74264295Y-33066337D01*
X62566723Y-86904948D02*
X62502034Y-86871385D01*
X57997319Y-86082828D02*
X57989286Y-86155263D01*
X74517078Y-86790462D02*
X74458014Y-86833154D01*
X73081591Y-47819947D02*
X73110537Y-47780918D01*
X62633707Y-86933662D02*
X62566723Y-86904948D01*
X27037862Y-86274045D02*
X27026055Y-86226910D01*
X57388859Y-86924640D02*
X57343523Y-86942127D01*
X38058572Y-33001193D02*
X38107032Y-33004767D01*
X38904944Y-33566720D02*
X38933658Y-33633704D01*
X72880449Y-57970327D02*
X72833618Y-57957367D01*
X57320547Y-84180967D02*
X57388859Y-84206359D01*
X49733693Y-69824618D02*
X49680498Y-67999996D01*
X57743544Y-86674842D02*
X57710038Y-86710035D01*
X62066340Y-84764704D02*
X62084936Y-84719811D01*
X29478256Y-75208392D02*
X29464890Y-75264673D01*
X62544888Y-84236708D02*
X62588814Y-84215933D01*
X62702621Y-84173629D02*
X62749452Y-84160669D01*
X73041849Y-47881035D02*
X73081591Y-47819947D01*
X42820743Y-86985424D02*
X42749445Y-86970330D01*
X57833157Y-84570985D02*
X57859153Y-84612038D01*
X72901000Y-50991000D02*
X72901000Y-48390058D01*
X27291964Y-33289964D02*
X27345359Y-33240363D01*
X38131182Y-85008446D02*
X38179248Y-85015575D01*
X62095054Y-86433279D02*
X62075362Y-86388856D01*
X38989279Y-33844736D02*
X38997312Y-33917171D01*
X38619074Y-33209537D02*
X38674838Y-33256458D01*
X72129700Y-54004071D02*
X72126141Y-54000422D01*
X57989286Y-84975736D02*
X57997319Y-85048171D01*
X73340985Y-47566842D02*
X73403031Y-47528611D01*
X72591352Y-62153592D02*
X72654317Y-62116895D01*
X61018172Y-40969426D02*
X60946941Y-40984478D01*
X42588807Y-85085933D02*
X42633700Y-85067337D01*
X57599744Y-86805174D02*
X57560017Y-86833154D01*
X38388852Y-86924640D02*
X38320540Y-86950032D01*
X62075362Y-86388856D02*
X62057875Y-86343520D01*
X56470616Y-72459472D02*
X56451173Y-72528106D01*
X74802948Y-42833276D02*
X74781101Y-42876679D01*
X38964133Y-85726954D02*
X38975940Y-85774089D01*
X42633700Y-33066337D02*
X42702614Y-33042629D01*
X74416961Y-86859150D02*
X74353114Y-86894291D01*
X63491490Y-65879012D02*
X56509000Y-65879000D01*
X27016575Y-86179252D02*
X27009446Y-86131186D01*
X27846736Y-33010716D02*
X27919171Y-33002683D01*
X38455110Y-86894291D02*
X38388852Y-86924640D01*
X29841822Y-73449091D02*
X29478256Y-75208392D01*
X42194821Y-34598741D02*
X42166841Y-34559014D01*
X72297845Y-57560011D02*
X72271849Y-57518958D01*
X73067845Y-42960011D02*
X73029614Y-42897965D01*
X72550950Y-62180588D02*
X72591352Y-62153592D01*
X74264295Y-47466334D02*
X74331279Y-47495048D01*
X74792291Y-33544885D02*
X74822640Y-33611143D01*
X42633700Y-85067337D02*
X42679451Y-85050967D01*
X27006767Y-33892963D02*
X27012716Y-33844736D01*
X42084929Y-85589811D02*
X42105704Y-85545885D01*
X38388852Y-85076359D02*
X38433275Y-85096051D01*
X74536048Y-43175276D02*
X74497741Y-43205171D01*
X58000003Y-85121061D02*
X58000003Y-86009938D01*
X74608035Y-43110032D02*
X74572842Y-43143538D01*
X50521735Y-60791599D02*
X50535101Y-60735318D01*
X72160669Y-57250547D02*
X72145575Y-57179249D01*
X38997312Y-85918171D02*
X38999996Y-86009938D01*
X38819404Y-33419950D02*
X38859146Y-33481038D01*
X73096704Y-62000295D02*
X73932295Y-62000295D01*
X60760435Y-57923917D02*
X60715172Y-57941341D01*
X32000720Y-34999496D02*
X31994954Y-35003631D01*
X27004683Y-86082828D02*
X27002298Y-86034295D01*
X74848032Y-42720541D02*
X74822640Y-42788853D01*
X72902193Y-48341420D02*
X72905767Y-48292960D01*
X74893232Y-48292960D02*
X74897701Y-48365701D01*
X72985933Y-42811185D02*
X72967337Y-42766292D01*
X38476678Y-34882101D02*
X38433275Y-34903948D01*
X57980979Y-84927860D02*
X57989286Y-84975736D01*
X30266298Y-69824618D02*
X30109840Y-71614266D01*
X62633707Y-84197337D02*
X62702621Y-84173629D01*
X57957373Y-84833618D02*
X57970333Y-84880449D01*
X73226157Y-43143538D02*
X73173995Y-43092641D01*
X38082824Y-86997316D02*
X38009934Y-87000000D01*
X38476678Y-33116898D02*
X38518957Y-33140849D01*
X38790458Y-85381921D02*
X38819404Y-85420950D01*
X38980972Y-86203139D02*
X38970326Y-86250550D01*
X27681455Y-33049967D02*
X27727954Y-33035862D01*
X80889000Y-26999000D02*
X21011000Y-26999000D01*
X74802948Y-57433276D02*
X74769385Y-57497965D01*
X51000209Y-76999528D02*
X50535101Y-75264674D01*
X57790465Y-84511921D02*
X57833157Y-84570985D01*
X42024051Y-86226910D02*
X42014571Y-86179252D01*
X42544881Y-34893291D02*
X42502027Y-34870385D01*
X72967337Y-48033701D02*
X72985933Y-47988808D01*
X62380924Y-84340537D02*
X62419953Y-84311591D01*
X51000933Y-38002882D02*
X50996368Y-37994954D01*
X74862137Y-62725951D02*
X74873944Y-62773086D01*
X49680498Y-67999996D02*
X49733693Y-66175373D01*
X27274995Y-86692644D02*
X27242363Y-86656640D01*
X72215933Y-62588808D02*
X72247898Y-62523314D01*
X74517078Y-47609534D02*
X74572842Y-47656455D01*
X62007449Y-84999813D02*
X62014578Y-84951747D01*
X74862137Y-57274042D02*
X74848032Y-57320541D01*
X42084929Y-86411188D02*
X42066333Y-86366295D01*
X42702614Y-33042629D02*
X42773085Y-33024055D01*
X57894294Y-84675885D02*
X57915069Y-84719811D01*
X74898000Y-33990061D02*
X74898000Y-42409935D01*
X27613143Y-33075359D02*
X27681455Y-33049967D01*
X42796856Y-34979976D02*
X42749445Y-34969330D01*
X74883424Y-62820744D02*
X74890553Y-62868810D01*
X38975940Y-34225910D02*
X38957366Y-34296381D01*
X53889000Y-57999000D02*
X53884071Y-58000299D01*
X28999052Y-58999156D02*
X29464891Y-60735319D01*
X27196825Y-33400258D02*
X27242363Y-33343359D01*
X68124125Y-65998000D02*
X68132139Y-66000951D01*
X74241520Y-57942124D02*
X74172045Y-57964134D01*
X74744404Y-57539644D02*
X74703174Y-57599738D01*
X38599737Y-85195825D02*
X38638044Y-85225720D01*
X42010712Y-33844736D02*
X42019019Y-33796860D01*
X73956576Y-47401190D02*
X74029186Y-47407443D01*
X57710038Y-86710035D02*
X57674845Y-86743541D01*
X72126141Y-54000422D02*
X72121000Y-53999000D01*
X30103111Y-71671720D02*
X29841822Y-73449091D01*
X27590811Y-86915066D02*
X27546885Y-86894291D01*
X42343355Y-85241363D02*
X42380917Y-85210537D01*
X74195381Y-47442626D02*
X74264295Y-47466334D01*
X62166848Y-84570985D02*
X62194828Y-84531258D01*
X38894287Y-34454114D02*
X38859146Y-34517961D01*
X62343362Y-86759636D02*
X62289967Y-86710035D01*
X42066333Y-34365295D02*
X42049963Y-34319544D01*
X74572842Y-47656455D02*
X74608035Y-47689961D01*
X38297377Y-85043629D02*
X38343516Y-85058872D01*
X38107032Y-34994232D02*
X38034291Y-34998701D01*
X48000865Y-35000153D02*
X47993863Y-34999000D01*
X38250546Y-86970330D02*
X38203135Y-86980976D01*
X74781101Y-42876679D02*
X74744404Y-42939644D01*
X73580455Y-47449964D02*
X73650449Y-47429666D01*
X50996368Y-37994954D02*
X48000865Y-35000153D01*
X62128617Y-84633031D02*
X62166848Y-84570985D01*
X42000294Y-34033295D02*
X42000294Y-33965704D01*
X74478049Y-33180591D02*
X74536048Y-33224720D01*
X38992549Y-85869813D02*
X38997312Y-85918171D01*
X73006708Y-47944882D02*
X73041849Y-47881035D01*
X74657636Y-62343356D02*
X74703174Y-62400255D01*
X73048171Y-62002680D02*
X73096704Y-62000295D01*
X74497741Y-43205171D02*
X74437647Y-43246401D01*
X73932295Y-62000295D02*
X73980828Y-62002680D01*
X57388859Y-84206359D02*
X57433282Y-84226051D01*
X68130194Y-53999263D02*
X60848186Y-57882500D01*
X60715172Y-62058658D02*
X60760435Y-62076082D01*
X62941426Y-86998806D02*
X62892966Y-86995232D01*
X42588807Y-33084933D02*
X42633700Y-33066337D01*
X53101928Y-48998071D02*
X53109000Y-49001000D01*
X53999272Y-80129403D02*
X53999012Y-84121490D01*
X74148550Y-47429666D02*
X74195381Y-47442626D01*
X74374682Y-62116895D02*
X74416961Y-62140846D01*
X74416961Y-57859147D02*
X74353114Y-57894288D01*
X57915069Y-84719811D02*
X57933665Y-84764704D01*
X42844732Y-33010716D02*
X42892959Y-33004767D01*
X57759639Y-84474359D02*
X57790465Y-84511921D01*
X38674838Y-85257458D02*
X38710031Y-85290964D01*
X72898409Y-39002284D02*
X72891980Y-38999048D01*
X80899000Y-92991000D02*
X80899000Y-27009000D01*
X72131000Y-57009935D02*
X72131000Y-54009000D01*
X72132193Y-62941420D02*
X72138446Y-62868810D01*
X57859153Y-84612038D02*
X57894294Y-84675885D01*
X72456157Y-57743538D02*
X72403995Y-57692641D01*
X29002547Y-77005964D02*
X33998160Y-84998280D01*
X38009934Y-87000000D02*
X27992061Y-87000000D01*
X27009446Y-86131186D02*
X27004683Y-86082828D01*
X38727000Y-33307355D02*
X38775275Y-33361951D01*
X21011000Y-93001000D02*
X80889000Y-93001000D01*
X73650449Y-47429666D02*
X73697860Y-47419020D01*
X27211537Y-86619078D02*
X27182591Y-86580049D01*
X72403995Y-57692641D02*
X72371363Y-57656637D01*
X21001000Y-27009000D02*
X21001000Y-92991000D01*
X42010712Y-34154263D02*
X42002679Y-34081828D01*
X60848186Y-62117499D02*
X68124125Y-65998000D01*
X42892959Y-33004767D02*
X42965700Y-33000298D01*
X42749445Y-85030669D02*
X42820743Y-85015575D01*
X42049963Y-33679455D02*
X42066333Y-33633704D01*
X29464890Y-75264673D02*
X28999740Y-76998780D01*
X54002104Y-84128242D02*
X54009000Y-84131000D01*
X60946941Y-40984478D02*
X60874858Y-40994249D01*
X74572842Y-57743538D02*
X74536048Y-57775276D01*
X73745736Y-43389280D02*
X73697860Y-43380973D01*
X38710031Y-86710035D02*
X38656636Y-86759636D01*
X42380917Y-85210537D02*
X42419946Y-85181591D01*
X42019019Y-33796860D02*
X42029665Y-33749449D01*
X57058579Y-84132193D02*
X57107039Y-84135767D01*
X38933658Y-85634704D02*
X38950028Y-85680455D01*
X74353114Y-86894291D02*
X74286856Y-86924640D01*
X57250553Y-84160669D02*
X57320547Y-84180967D01*
X62042632Y-86297381D02*
X62029672Y-86250550D01*
X53879000Y-58009000D02*
X53879000Y-61991000D01*
X42679451Y-85050967D02*
X42749445Y-85030669D01*
X74053263Y-57989280D02*
X74005036Y-57995229D01*
X27402258Y-33194825D02*
X27462352Y-33153595D01*
X27097051Y-33566720D02*
X27118898Y-33523317D01*
X62002686Y-86082828D02*
X62000003Y-86009938D01*
X27142849Y-33481038D02*
X27168845Y-33439985D01*
X50535101Y-75264674D02*
X50521735Y-75208392D01*
X74878976Y-48196857D02*
X74887283Y-48244733D01*
X42990057Y-34999000D02*
X42941419Y-34997806D01*
X27051967Y-33679455D02*
X27068337Y-33633704D01*
X74536048Y-57775276D02*
X74497741Y-57805171D01*
X62820750Y-86985424D02*
X62749452Y-86970330D01*
X72129700Y-65995928D02*
X72131000Y-65991000D01*
X72833618Y-62042626D02*
X72880449Y-62029666D01*
X74286856Y-43324637D02*
X74241520Y-43342124D01*
X73512143Y-47475356D02*
X73580455Y-47449964D01*
X60575033Y-62019952D02*
X60645814Y-62036729D01*
X74458014Y-86833154D02*
X74416961Y-86859150D01*
X62460355Y-86846404D02*
X62400261Y-86805174D01*
X62941426Y-84132193D02*
X62990064Y-84131000D01*
X38656636Y-86759636D02*
X38599737Y-86805174D01*
X42460348Y-86846404D02*
X42400254Y-86805174D01*
X72915575Y-48220744D02*
X72930669Y-48149446D01*
X63503566Y-72295344D02*
X63501000Y-72224056D01*
X27026055Y-86226910D02*
X27016575Y-86179252D01*
X29464891Y-60735319D02*
X29478256Y-60791598D01*
X38107032Y-33004767D02*
X38155259Y-33010716D01*
X42002679Y-86082828D02*
X42000294Y-86034295D01*
X27546885Y-86894291D02*
X27504031Y-86871385D01*
X62002686Y-85048171D02*
X62007449Y-84999813D01*
X74893232Y-57107033D02*
X74887283Y-57155260D01*
X38710031Y-85290964D02*
X38743537Y-85326157D01*
X68899544Y-38999224D02*
X61018172Y-40969426D01*
X60777941Y-40999000D02*
X53106332Y-40999362D01*
X73173995Y-43092641D02*
X73141363Y-43056637D01*
X33998160Y-84998280D02*
X34006326Y-85001000D01*
X42702614Y-34956370D02*
X42633700Y-34932662D01*
X72387458Y-62325154D02*
X72420964Y-62289961D01*
X62049970Y-84810455D02*
X62066340Y-84764704D01*
X42224716Y-34637048D02*
X42194821Y-34598741D01*
X74896806Y-86058576D02*
X74890553Y-86131186D01*
X72135767Y-57107033D02*
X72132193Y-57058573D01*
X30266298Y-66175373D02*
X30319493Y-67999996D01*
X73382038Y-43259147D02*
X73320950Y-43219405D01*
X74673279Y-86638048D02*
X74625004Y-86692644D01*
X72927860Y-57980973D02*
X72880449Y-57970327D01*
X74331279Y-47495048D02*
X74395968Y-47528611D01*
X72236708Y-57455111D02*
X72215933Y-57411185D01*
X74395968Y-43271382D02*
X74331279Y-43304945D01*
X73697860Y-47419020D02*
X73769813Y-47407443D01*
X42105704Y-34454114D02*
X42084929Y-34410188D01*
X53889000Y-62001000D02*
X60382188Y-62001000D01*
X38411184Y-33084933D02*
X38476678Y-33116898D01*
X74572842Y-86743541D02*
X74517078Y-86790462D01*
X74148550Y-33029669D02*
X74218544Y-33049967D01*
X62256461Y-86674842D02*
X62209540Y-86619078D01*
X28999740Y-76998780D02*
X29002547Y-77005964D01*
X62116901Y-86476682D02*
X62095054Y-86433279D01*
X62588814Y-84215933D02*
X62633707Y-84197337D01*
X38883097Y-33523317D02*
X38904944Y-33566720D01*
X27021023Y-33796860D02*
X27037862Y-33725954D01*
X57692647Y-84403995D02*
X57727007Y-84438355D01*
X27421950Y-86819408D02*
X27382921Y-86790462D01*
X72911716Y-42555260D02*
X72905767Y-42507033D01*
X57904951Y-86433279D02*
X57871388Y-86497968D01*
X63511250Y-72366202D02*
X63503566Y-72295344D01*
X42153591Y-86539647D02*
X42116894Y-86476682D01*
X74717408Y-42980046D02*
X74688462Y-43019075D01*
X74101139Y-86980976D02*
X74029186Y-86992553D01*
X73980828Y-62002680D02*
X74029186Y-62007443D01*
X27462352Y-86846404D02*
X27421950Y-86819408D01*
X27051967Y-86320544D02*
X27037862Y-86274045D01*
X42523313Y-33116898D02*
X42588807Y-33084933D01*
X66000727Y-80129403D02*
X63548826Y-72528106D01*
X74878976Y-57203136D02*
X74862137Y-57274042D01*
X57560017Y-86833154D02*
X57518964Y-86859150D01*
X42343355Y-86759636D02*
X42289960Y-86710035D01*
X62029672Y-86250550D02*
X62019026Y-86203139D01*
X60430736Y-62002188D02*
X60503211Y-62008418D01*
X73006708Y-42855111D02*
X72985933Y-42811185D01*
X72985933Y-47988808D02*
X73006708Y-47944882D01*
X74703174Y-57599738D02*
X74657636Y-57656637D01*
X27992061Y-87000000D02*
X27919171Y-86997316D01*
X57560017Y-84297845D02*
X57599744Y-84325825D01*
X74029186Y-33007446D02*
X74077252Y-33014575D01*
X74195381Y-62042626D02*
X74264295Y-62066334D01*
X73467720Y-47495048D02*
X73512143Y-47475356D01*
X74893232Y-42507033D02*
X74887283Y-42555260D01*
X42166841Y-34559014D02*
X42140845Y-34517961D01*
X74731154Y-47839982D02*
X74769385Y-47902028D01*
X74862137Y-48125951D02*
X74878976Y-48196857D01*
X38155259Y-86989283D02*
X38082824Y-86997316D01*
X38155259Y-33010716D02*
X38203135Y-33019023D01*
X74172045Y-86964137D02*
X74101139Y-86980976D01*
X27068337Y-33633704D02*
X27097051Y-33566720D01*
X72901000Y-48390058D02*
X72902193Y-48341420D01*
X57933665Y-86366295D02*
X57904951Y-86433279D01*
X62140852Y-86518961D02*
X62116901Y-86476682D01*
X74848032Y-57320541D02*
X74822640Y-57388853D01*
X27546885Y-33105708D02*
X27613143Y-33075359D01*
X63529383Y-72459472D02*
X63519197Y-72413055D01*
X60645814Y-62036729D02*
X60715172Y-62058658D01*
X42049963Y-34319544D02*
X42035858Y-34273045D01*
X50997448Y-77005968D02*
X51000209Y-76999528D01*
X74883424Y-86179252D02*
X74868330Y-86250550D01*
X42002679Y-85918171D02*
X42007442Y-85869813D01*
X72492951Y-57775276D02*
X72456157Y-57743538D01*
X74688462Y-33380921D02*
X74717408Y-33419950D01*
X74757150Y-62481035D02*
X74781101Y-62523314D01*
X27037862Y-33725954D02*
X27051967Y-33679455D01*
X62892966Y-84135767D02*
X62941426Y-84132193D01*
X27345359Y-86759636D02*
X27309355Y-86727004D01*
X42965700Y-33000298D02*
X73907938Y-33000000D01*
X42749445Y-34969330D02*
X42702614Y-34956370D01*
X42209533Y-85381921D02*
X42240359Y-85344359D01*
X53999012Y-84121490D02*
X54002104Y-84128242D01*
X74331279Y-43304945D02*
X74286856Y-43324637D01*
X42460348Y-85154595D02*
X42502027Y-85129614D01*
X62481041Y-84271849D02*
X62544888Y-84236708D01*
X42000294Y-33965704D02*
X42004763Y-33892963D01*
X57833157Y-86560014D02*
X57790465Y-86619078D01*
X42272991Y-33307355D02*
X42307351Y-33272995D01*
X38179248Y-85015575D02*
X38250546Y-85030669D01*
X74148550Y-43370327D02*
X74077252Y-43385421D01*
X38009934Y-33000000D02*
X38058572Y-33001193D01*
X74802948Y-86433279D02*
X74781101Y-86476682D01*
X73956576Y-86998806D02*
X73907938Y-87000000D01*
X72697720Y-57904945D02*
X72654317Y-57883098D01*
X74822640Y-62611140D02*
X74840127Y-62656476D01*
X38995228Y-86107036D02*
X38989279Y-86155263D01*
X62209540Y-86619078D02*
X62180594Y-86580049D01*
X74848032Y-33679455D02*
X74862137Y-33725954D01*
X57107039Y-86995232D02*
X57034298Y-86999701D01*
X65991000Y-84131000D02*
X65997895Y-84128242D01*
X74124910Y-62024052D02*
X74195381Y-62042626D01*
X74878976Y-42603136D02*
X74862137Y-42674042D01*
X60575033Y-57980047D02*
X60503211Y-57991581D01*
X74822640Y-42788853D02*
X74802948Y-42833276D01*
X72215933Y-57411185D02*
X72197337Y-57366292D01*
X73190964Y-47689961D02*
X73226157Y-47656455D01*
X42194821Y-86599741D02*
X42153591Y-86539647D01*
X57250553Y-86970330D02*
X57203142Y-86980976D01*
X42361947Y-33224720D02*
X42419946Y-33180591D01*
X74822640Y-57388853D02*
X74802948Y-57433276D01*
X74890553Y-86131186D02*
X74883424Y-86179252D01*
X38599737Y-86805174D02*
X38539643Y-86846404D01*
X74625004Y-57692641D02*
X74572842Y-57743538D01*
X63501000Y-72224056D02*
X63501000Y-65889000D01*
X74873944Y-62773086D02*
X74883424Y-62820744D01*
X72125928Y-65999700D02*
X72129700Y-65995928D01*
X29841822Y-62550900D02*
X30103111Y-64328271D01*
X57638051Y-86775279D02*
X57599744Y-86805174D01*
X74124910Y-57975941D02*
X74053263Y-57989280D01*
X38539643Y-34845404D02*
X38476678Y-34882101D01*
X54009000Y-84131000D02*
X57009941Y-84131000D01*
X38933658Y-33633704D02*
X38957366Y-33702618D01*
X62057875Y-86343520D02*
X62042632Y-86297381D01*
X38433275Y-34903948D02*
X38388852Y-34923640D01*
X74657636Y-47743356D02*
X74688462Y-47780918D01*
X42035858Y-85726954D02*
X42049963Y-85680455D01*
X49896880Y-64328271D02*
X50158169Y-62550900D01*
X38320540Y-86950032D02*
X38250546Y-86970330D01*
X72905767Y-48292960D02*
X72915575Y-48220744D01*
X38034291Y-34998701D02*
X32000720Y-34999496D01*
X60645814Y-57963270D02*
X60575033Y-57980047D01*
X42419946Y-85181591D02*
X42460348Y-85154595D01*
X72654317Y-57883098D02*
X72612038Y-57859147D01*
X72150023Y-62796857D02*
X72166862Y-62725951D01*
X60430736Y-57997811D02*
X60382188Y-57999000D01*
X21011000Y-26999000D02*
X21003928Y-27001928D01*
X63501000Y-65889000D02*
X63498242Y-65882104D01*
X60826488Y-49002188D02*
X60874858Y-49005750D01*
X38957366Y-86297381D02*
X38933658Y-86366295D01*
X38775275Y-34637048D02*
X38727000Y-34691644D01*
X42502027Y-85129614D02*
X42544881Y-85106708D01*
X73956576Y-43398803D02*
X73907938Y-43399997D01*
X27182591Y-86580049D02*
X27155595Y-86539647D01*
X60804790Y-57904297D02*
X60760435Y-57923917D01*
X50158169Y-73449091D02*
X49896880Y-71671720D01*
X30109840Y-71614266D02*
X30103111Y-71671720D01*
X27242363Y-86656640D02*
X27211537Y-86619078D01*
X42419946Y-33180591D02*
X42460348Y-33153595D01*
X74897701Y-57034292D02*
X74893232Y-57107033D01*
X74688462Y-47780918D02*
X74731154Y-47839982D01*
X38743537Y-85326157D02*
X38790458Y-85381921D01*
X60777941Y-49001000D02*
X60826488Y-49002188D01*
X42307351Y-33272995D02*
X42361947Y-33224720D01*
X74353114Y-57894288D02*
X74309188Y-57915063D01*
X73029614Y-42897965D02*
X73006708Y-42855111D01*
X62256461Y-84456157D02*
X62307358Y-84403995D01*
X38539643Y-86846404D02*
X38497964Y-86871385D01*
X72166862Y-62725951D02*
X72188872Y-62656476D01*
X57656643Y-84371363D02*
X57692647Y-84403995D01*
X38950028Y-85680455D02*
X38964133Y-85726954D01*
X57433282Y-86904948D02*
X57388859Y-86924640D01*
X57975947Y-86226910D02*
X57957373Y-86297381D01*
X60874858Y-40994249D02*
X60826488Y-40997811D01*
X38388852Y-34923640D02*
X38343516Y-34941127D01*
X42307351Y-85273995D02*
X42343355Y-85241363D01*
X38894287Y-85545885D02*
X38915062Y-85589811D01*
X42272991Y-85308355D02*
X42307351Y-85273995D01*
X72131000Y-54009000D02*
X72129700Y-54004071D01*
X56502847Y-65881116D02*
X56499362Y-65886332D01*
X74657636Y-43056637D02*
X74608035Y-43110032D01*
X62000003Y-86009938D02*
X62000003Y-85121061D01*
X73320950Y-43219405D02*
X73281921Y-43190459D01*
X27155595Y-86539647D02*
X27130614Y-86497968D01*
X74896806Y-42458573D02*
X74893232Y-42507033D01*
X38203135Y-34979976D02*
X38155259Y-34988283D01*
X74077252Y-33014575D02*
X74148550Y-33029669D01*
X74887283Y-48244733D02*
X74893232Y-48292960D01*
X74822640Y-48011140D02*
X74848032Y-48079452D01*
X38727000Y-34691644D02*
X38692640Y-34726004D01*
X73907938Y-57999997D02*
X73121061Y-57999997D01*
X56499000Y-72224056D02*
X56496433Y-72295344D01*
X42084929Y-34410188D02*
X42066333Y-34365295D01*
X73467720Y-43304945D02*
X73424317Y-43283098D01*
X74822640Y-33611143D02*
X74848032Y-33679455D01*
X73281921Y-43190459D02*
X73226157Y-43143538D01*
X74218544Y-86950032D02*
X74172045Y-86964137D01*
X38999996Y-86009938D02*
X38998802Y-86058576D01*
X74744404Y-86539647D02*
X74717408Y-86580049D01*
X62400261Y-86805174D02*
X62343362Y-86759636D01*
X74781101Y-86476682D02*
X74744404Y-86539647D01*
X72197337Y-57366292D02*
X72173629Y-57297378D01*
X38975940Y-33773089D02*
X38989279Y-33844736D01*
X72132193Y-57058573D02*
X72131000Y-57009935D01*
X72131000Y-62990058D02*
X72132193Y-62941420D01*
X72284595Y-62460349D02*
X72311591Y-62419947D01*
X74264295Y-62066334D02*
X74331279Y-62095048D01*
X80889000Y-93001000D02*
X80895715Y-92998409D01*
X42460348Y-34845404D02*
X42400254Y-34804174D01*
X42633700Y-34932662D02*
X42588807Y-34914066D01*
X63498242Y-65882104D02*
X63491490Y-65879012D01*
X73907938Y-43399997D02*
X73842423Y-43398803D01*
X42035858Y-34273045D02*
X42019019Y-34202139D01*
X74781101Y-62523314D02*
X74802948Y-62566717D01*
X74536048Y-33224720D02*
X74590644Y-33272995D01*
X74572842Y-62256455D02*
X74608035Y-62289961D01*
X57727007Y-84438355D02*
X57759639Y-84474359D01*
X56488749Y-72366202D02*
X56480802Y-72413055D01*
X42544881Y-86894291D02*
X42502027Y-86871385D01*
X72612038Y-57859147D02*
X72570985Y-57833151D01*
X62702621Y-86957370D02*
X62633707Y-86933662D01*
X73842423Y-47401190D02*
X73907938Y-47399997D01*
X38599737Y-34804174D02*
X38539643Y-34845404D01*
X50521735Y-75208392D02*
X50158169Y-73449091D01*
X72325825Y-57599738D02*
X72297845Y-57560011D01*
X72456157Y-62256455D02*
X72511921Y-62209534D01*
X74703174Y-62400255D02*
X74731154Y-62439982D01*
X49733693Y-66175373D02*
X49890151Y-64385725D01*
X73534704Y-43333659D02*
X73467720Y-43304945D01*
X66000972Y-84121735D02*
X66000727Y-80129403D01*
X30319493Y-67999996D02*
X30266298Y-69824618D01*
X60804790Y-62095702D02*
X60848186Y-62117499D01*
X42965700Y-86999701D02*
X42892959Y-86995232D01*
X57674845Y-86743541D02*
X57638051Y-86775279D01*
X73157458Y-47725154D02*
X73190964Y-47689961D01*
X73842423Y-43398803D02*
X73793963Y-43395229D01*
X74458014Y-57833151D02*
X74416961Y-57859147D01*
X72311591Y-62419947D02*
X72340537Y-62380918D01*
X27681455Y-86950032D02*
X27635704Y-86933662D01*
X62990064Y-87000000D02*
X62941426Y-86998806D01*
X46004200Y-84995165D02*
X50997448Y-77005968D01*
X62307358Y-84403995D02*
X62343362Y-84371363D01*
X38859146Y-33481038D02*
X38883097Y-33523317D01*
X60760435Y-62076082D02*
X60804790Y-62095702D01*
X42941419Y-34997806D02*
X42868809Y-34991553D01*
X42029665Y-33749449D02*
X42049963Y-33679455D01*
X38970326Y-86250550D02*
X38957366Y-86297381D01*
X57497971Y-84259614D02*
X57560017Y-84297845D01*
X28999246Y-38001668D02*
X28999052Y-58999156D01*
X74887283Y-42555260D02*
X74878976Y-42603136D01*
X72511921Y-62209534D02*
X72550950Y-62180588D01*
X42000294Y-85966704D02*
X42002679Y-85918171D01*
X72927860Y-62019020D02*
X72975736Y-62010713D01*
X50158169Y-62550900D02*
X50521735Y-60791599D01*
X72936862Y-42674042D02*
X72920023Y-42603136D01*
X73403031Y-47528611D02*
X73467720Y-47495048D01*
X42019019Y-34202139D02*
X42010712Y-34154263D01*
X42066333Y-86366295D02*
X42049963Y-86320544D01*
X42180587Y-85420950D02*
X42209533Y-85381921D01*
X74608035Y-62289961D02*
X74657636Y-62343356D01*
X21003590Y-92997715D02*
X21011000Y-93001000D01*
X57989286Y-86155263D02*
X57975947Y-86226910D01*
X38975940Y-85774089D02*
X38985420Y-85821747D01*
X34006326Y-85001000D02*
X38009934Y-85001000D01*
X42180587Y-33419950D02*
X42224716Y-33361951D01*
X53884071Y-58000299D02*
X53880299Y-58004071D01*
X27919171Y-33002683D02*
X27992061Y-33000000D01*
X38250546Y-85030669D02*
X38297377Y-85043629D01*
X68132139Y-66000951D02*
X72121000Y-66001000D01*
X74572842Y-43143538D02*
X74536048Y-43175276D01*
X38203135Y-86980976D02*
X38155259Y-86989283D01*
X27309355Y-86727004D02*
X27274995Y-86692644D01*
X58000003Y-86009938D02*
X57997319Y-86082828D01*
X38638044Y-85225720D02*
X38674838Y-85257458D01*
X57599744Y-84325825D02*
X57656643Y-84371363D01*
X73956576Y-57998803D02*
X73907938Y-57999997D01*
X27504031Y-33128614D02*
X27546885Y-33105708D01*
X38274041Y-34963137D02*
X38203135Y-34979976D01*
X60946941Y-49015521D02*
X61018172Y-49030573D01*
X42460348Y-33153595D02*
X42523313Y-33116898D01*
X27775089Y-33024055D02*
X27846736Y-33010716D01*
X53106332Y-40999362D02*
X53101116Y-41002847D01*
X74437647Y-43246401D02*
X74395968Y-43271382D01*
X38999996Y-33990061D02*
X38997312Y-34081828D01*
X72247898Y-62523314D02*
X72284595Y-62460349D01*
X63519197Y-72413055D02*
X63511250Y-72366202D01*
X73048171Y-57997313D02*
X72975736Y-57989280D01*
X42892959Y-86995232D02*
X42820743Y-86985424D01*
X74416961Y-62140846D02*
X74478049Y-62180588D01*
X57933665Y-84764704D02*
X57957373Y-84833618D01*
X42140845Y-34517961D02*
X42105704Y-34454114D01*
X57034298Y-86999701D02*
X42965700Y-86999701D01*
X38819404Y-34579049D02*
X38775275Y-34637048D01*
X38846400Y-85461352D02*
X38871381Y-85503031D01*
X72943629Y-48102615D02*
X72967337Y-48033701D01*
X73121061Y-57999997D02*
X73048171Y-57997313D01*
X29003631Y-37994954D02*
X28999246Y-38001668D01*
X38692640Y-34726004D02*
X38656636Y-34758636D01*
X49896880Y-71671720D02*
X49890151Y-71614266D01*
X56509000Y-65879000D02*
X56502847Y-65881116D01*
X42820743Y-85015575D02*
X42892959Y-85005767D01*
X38343516Y-85058872D02*
X38388852Y-85076359D01*
X62180594Y-86580049D02*
X62140852Y-86518961D01*
X38743537Y-86674842D02*
X38710031Y-86710035D01*
X27382921Y-86790462D02*
X27345359Y-86759636D01*
X42014571Y-86179252D02*
X42007442Y-86131186D01*
X73793963Y-43395229D02*
X73745736Y-43389280D01*
X72531258Y-57805171D02*
X72492951Y-57775276D01*
X42116894Y-86476682D02*
X42084929Y-86411188D01*
X29478256Y-60791598D02*
X29841822Y-62550900D01*
X74029186Y-43392550D02*
X73956576Y-43398803D01*
X38518957Y-33140849D02*
X38560010Y-33166845D01*
X74641541Y-33325157D02*
X74688462Y-33380921D01*
X62343362Y-84371363D02*
X62380924Y-84340537D01*
X74896806Y-33941423D02*
X74898000Y-33990061D01*
X38343516Y-34941127D02*
X38274041Y-34963137D01*
X74101139Y-47419020D02*
X74148550Y-47429666D01*
X72340537Y-62380918D02*
X72387458Y-62325154D01*
X72697720Y-62095048D02*
X72764704Y-62066334D01*
X27168845Y-33439985D02*
X27196825Y-33400258D01*
X38674838Y-33256458D02*
X38727000Y-33307355D01*
X80899000Y-27009000D02*
X80896409Y-27002284D01*
X72891490Y-51000987D02*
X72898242Y-50997895D01*
X72145575Y-57179249D02*
X72135767Y-57107033D01*
X74688462Y-43019075D02*
X74657636Y-43056637D01*
X42773085Y-33024055D02*
X42844732Y-33010716D01*
X74717408Y-86580049D02*
X74673279Y-86638048D01*
X42004763Y-33892963D02*
X42010712Y-33844736D01*
X42240359Y-85344359D02*
X42272991Y-85308355D01*
X42502027Y-34870385D02*
X42460348Y-34845404D01*
X74887283Y-57155260D02*
X74878976Y-57203136D01*
X72138446Y-62868810D02*
X72150023Y-62796857D01*
X38989279Y-86155263D02*
X38980972Y-86203139D01*
X42679451Y-86950032D02*
X42611139Y-86924640D01*
X57970333Y-84880449D02*
X57980979Y-84927860D01*
X38985420Y-85821747D02*
X38992549Y-85869813D01*
X60503211Y-57991581D02*
X60430736Y-57997811D01*
X62419953Y-84311591D02*
X62481041Y-84271849D01*
X38433275Y-85096051D02*
X38476678Y-85117898D01*
X57179255Y-84145575D02*
X57250553Y-84160669D01*
X62019026Y-86203139D02*
X62010719Y-86155263D01*
X74769385Y-57497965D02*
X74744404Y-57539644D01*
X74590644Y-33272995D02*
X74641541Y-33325157D01*
X38560010Y-33166845D02*
X38619074Y-33209537D01*
X57107039Y-84135767D02*
X57179255Y-84145575D01*
X62502034Y-86871385D02*
X62460355Y-86846404D01*
X74802948Y-47966717D02*
X74822640Y-48011140D01*
X72173629Y-57297378D02*
X72160669Y-57250547D01*
X74536048Y-62224717D02*
X74572842Y-62256455D01*
X74731154Y-62439982D02*
X74757150Y-62481035D01*
X73626954Y-43364134D02*
X73580455Y-43350029D01*
X72905767Y-42507033D02*
X72901298Y-42434292D01*
X74862137Y-42674042D02*
X74848032Y-42720541D01*
X27242363Y-33343359D02*
X27291964Y-33289964D01*
X42153591Y-33460352D02*
X42180587Y-33419950D01*
X27130614Y-86497968D02*
X27107708Y-86455114D01*
X74331279Y-62095048D02*
X74374682Y-62116895D01*
X74029186Y-47407443D02*
X74101139Y-47419020D01*
X73769813Y-47407443D02*
X73842423Y-47401190D01*
X72967337Y-42766292D02*
X72950967Y-42720541D01*
X42240359Y-86656640D02*
X42194821Y-86599741D01*
X57297384Y-86957370D02*
X57250553Y-86970330D01*
X74898000Y-42409935D02*
X74896806Y-42458573D01*
X31994954Y-35003631D02*
X29003631Y-37994954D01*
X42868809Y-34991553D02*
X42796856Y-34979976D01*
X27727954Y-33035862D02*
X27775089Y-33024055D01*
X53880299Y-58004071D02*
X53879000Y-58009000D01*
X57997319Y-85048171D02*
X58000003Y-85121061D01*
X72271849Y-57518958D02*
X72236708Y-57455111D01*
X74608035Y-47689961D02*
X74657636Y-47743356D01*
X38518957Y-85141849D02*
X38560010Y-85167845D01*
X53881928Y-61998071D02*
X53889000Y-62001000D01*
X30103111Y-64328271D02*
X30109840Y-64385725D01*
X38274041Y-33035862D02*
X38343516Y-33057872D01*
X62820750Y-84145575D02*
X62892966Y-84135767D01*
X56480802Y-72413055D02*
X56470616Y-72459472D01*
X42400254Y-86805174D02*
X42343355Y-86759636D01*
X62035865Y-84856954D02*
X62049970Y-84810455D01*
X74898000Y-62990058D02*
X74898000Y-86009938D01*
X74717408Y-33419950D02*
X74757150Y-33481038D01*
X74862137Y-33725954D02*
X74878976Y-33796860D01*
X62024058Y-84904089D02*
X62035865Y-84856954D01*
X27462352Y-33153595D02*
X27504031Y-33128614D01*
X38656636Y-34758636D02*
X38599737Y-34804174D01*
X27345359Y-33240363D02*
X27402258Y-33194825D01*
X42116894Y-33523317D02*
X42153591Y-33460352D01*
X45995128Y-85000982D02*
X46000483Y-84999347D01*
X38924636Y-34387856D02*
X38894287Y-34454114D01*
X62194828Y-84531258D02*
X62224723Y-84492951D01*
X42544881Y-85106708D02*
X42588807Y-85085933D01*
X73226157Y-47656455D02*
X73281921Y-47609534D01*
X42153591Y-85461352D02*
X42180587Y-85420950D01*
X74264295Y-33066337D02*
X74309188Y-33084933D01*
X74831662Y-86366295D02*
X74802948Y-86433279D01*
X38009934Y-85001000D02*
X38058572Y-85002193D01*
X57343523Y-86942127D02*
X57297384Y-86957370D01*
X53101116Y-41002847D02*
X53099000Y-41009000D01*
X38203135Y-33019023D02*
X38274041Y-33035862D01*
X72891980Y-38999048D02*
X68899544Y-38999224D01*
X38957366Y-34296381D02*
X38942123Y-34342520D01*
X74848032Y-86320544D02*
X74831662Y-86366295D01*
X27002298Y-86034295D02*
X27002000Y-33990061D01*
X53099000Y-41009000D02*
X53099000Y-48991000D01*
X72833618Y-57957367D02*
X72764704Y-57933659D01*
X73956576Y-33001193D02*
X74029186Y-33007446D01*
X60848186Y-57882500D02*
X60804790Y-57904297D01*
X72901000Y-39009000D02*
X72898409Y-39002284D01*
X27068337Y-86366295D02*
X27051967Y-86320544D01*
X72764704Y-62066334D02*
X72833618Y-62042626D01*
X60382188Y-62001000D02*
X60430736Y-62002188D01*
X38343516Y-33057872D02*
X38411184Y-33084933D01*
X60826488Y-40997811D02*
X60777941Y-40999000D01*
X42066333Y-85634704D02*
X42084929Y-85589811D01*
X74898000Y-86009938D02*
X74896806Y-86058576D01*
X38155259Y-34988283D02*
X38107032Y-34994232D01*
X74437647Y-33153595D02*
X74478049Y-33180591D01*
X73907938Y-33000000D02*
X73956576Y-33001193D01*
X65997895Y-84128242D02*
X66000972Y-84121735D01*
X62892966Y-86995232D02*
X62820750Y-86985424D01*
X62000003Y-85121061D02*
X62002686Y-85048171D01*
X42014571Y-85821747D02*
X42024051Y-85774089D01*
X72920023Y-42603136D02*
X72911716Y-42555260D01*
X72930669Y-48149446D02*
X72943629Y-48102615D01*
X74309188Y-33084933D02*
X74374682Y-33116898D01*
X38775275Y-86638048D02*
X38743537Y-86674842D01*
X57957373Y-86297381D02*
X57933665Y-86366295D01*
X38883097Y-86476682D02*
X38859146Y-86518961D01*
X53099000Y-48991000D02*
X53101928Y-48998071D01*
X38904944Y-86433279D02*
X38883097Y-86476682D01*
X42007442Y-85869813D02*
X42014571Y-85821747D01*
X42024051Y-85774089D02*
X42035858Y-85726954D01*
X27992061Y-33000000D02*
X38009934Y-33000000D01*
X62289967Y-86710035D02*
X62256461Y-86674842D01*
X61018172Y-49030573D02*
X68899544Y-51000775D01*
X74309188Y-57915063D02*
X74241520Y-57942124D01*
X63548826Y-72528106D02*
X63529383Y-72459472D01*
X74286856Y-86924640D02*
X74218544Y-86950032D01*
X72654317Y-62116895D02*
X72697720Y-62095048D01*
X42084929Y-33588811D02*
X42116894Y-33523317D01*
X72131000Y-65991000D02*
X72131000Y-62990058D01*
X27012716Y-33844736D02*
X27021023Y-33796860D01*
X49890151Y-64385725D02*
X49896880Y-64328271D01*
X74868330Y-86250550D02*
X74848032Y-86320544D01*
X80895715Y-92998409D02*
X80899000Y-92991000D01*
X72188872Y-62656476D02*
X72215933Y-62588808D01*
X57203142Y-86980976D02*
X57155266Y-86989283D01*
X30109840Y-64385725D02*
X30266298Y-66175373D01*
X42049963Y-86320544D02*
X42035858Y-86274045D01*
X72975736Y-57989280D02*
X72927860Y-57980973D01*
X27870813Y-86992553D02*
X27822747Y-86985424D01*
X74744404Y-42939644D02*
X74717408Y-42980046D01*
X42588807Y-34914066D02*
X42544881Y-34893291D01*
X57009941Y-84131000D02*
X57058579Y-84132193D01*
X74895316Y-62917168D02*
X74898000Y-62990058D01*
X42105704Y-85545885D02*
X42128610Y-85503031D01*
X38957366Y-33702618D02*
X38975940Y-33773089D01*
X38476678Y-85117898D02*
X38518957Y-85141849D01*
X72898242Y-50997895D02*
X72901000Y-50991000D01*
X42502027Y-86871385D02*
X42460348Y-86846404D01*
X74172045Y-57964134D02*
X74124910Y-57975941D01*
X38989279Y-34154263D02*
X38975940Y-34225910D01*
X73424317Y-43283098D02*
X73382038Y-43259147D01*
X27118898Y-33523317D02*
X27142849Y-33481038D01*
X62749452Y-86970330D02*
X62702621Y-86957370D01*
X74625004Y-86692644D02*
X74572842Y-86743541D01*
X38058572Y-85002193D02*
X38131182Y-85008446D01*
X72950967Y-42720541D02*
X72936862Y-42674042D01*
X74890553Y-62868810D02*
X74895316Y-62917168D01*
X42066333Y-33633704D02*
X42084929Y-33588811D01*
X27635704Y-86933662D02*
X27590811Y-86915066D01*
X62990064Y-84131000D02*
X65991000Y-84131000D01*
X38859146Y-86518961D02*
X38819404Y-86580049D01*
X42611139Y-86924640D02*
X42544881Y-86894291D01*
X72371363Y-57656637D02*
X72325825Y-57599738D01*
X62224723Y-84492951D02*
X62256461Y-84456157D01*
X74458014Y-47566842D02*
X74517078Y-47609534D01*
X62084936Y-84719811D02*
X62105711Y-84675885D01*
X42049963Y-85680455D02*
X42066333Y-85634704D01*
X74005036Y-57995229D02*
X73956576Y-57998803D01*
X74897701Y-48365701D02*
X74897701Y-57034292D01*
X72570985Y-57833151D02*
X72531258Y-57805171D01*
X73281921Y-47609534D02*
X73340985Y-47566842D01*
X38819404Y-86580049D02*
X38775275Y-86638048D01*
X42224716Y-33361951D02*
X42272991Y-33307355D01*
X68899544Y-51000775D02*
X72891490Y-51000987D01*
X74029186Y-86992553D02*
X73956576Y-86998806D01*
X74657636Y-57656637D02*
X74625004Y-57692641D01*
X42007442Y-86131186D02*
X42002679Y-86082828D01*
X57476685Y-86883101D02*
X57433282Y-86904948D01*
X27504031Y-86871385D02*
X27462352Y-86846404D01*
X38859146Y-34517961D02*
X38819404Y-34579049D01*
X73110537Y-47780918D02*
X73157458Y-47725154D01*
X74769385Y-47902028D02*
X74802948Y-47966717D01*
X27822747Y-86985424D02*
X27775089Y-86975944D01*
X74195381Y-43357367D02*
X74148550Y-43370327D01*
X62014578Y-84951747D02*
X62024058Y-84904089D01*
X74374682Y-33116898D02*
X74437647Y-33153595D01*
X27919171Y-86997316D02*
X27870813Y-86992553D01*
X57518964Y-86859150D02*
X57476685Y-86883101D01*
X27002000Y-33990061D02*
X27003193Y-33941423D01*
X38497964Y-86871385D02*
X38455110Y-86894291D01*
M02*
