G04 #@! TF.GenerationSoftware,KiCad,Pcbnew,6.0.2-378541a8eb~116~ubuntu20.04.1*
G04 #@! TF.CreationDate,2022-02-28T16:15:05+01:00*
G04 #@! TF.ProjectId,ISP_panel,4953505f-7061-46e6-956c-2e6b69636164,rev?*
G04 #@! TF.SameCoordinates,Original*
G04 #@! TF.FileFunction,Soldermask,Top*
G04 #@! TF.FilePolarity,Negative*
%FSLAX46Y46*%
G04 Gerber Fmt 4.6, Leading zero omitted, Abs format (unit mm)*
G04 Created by KiCad (PCBNEW 6.0.2-378541a8eb~116~ubuntu20.04.1) date 2022-02-28 16:15:05*
%MOMM*%
%LPD*%
G01*
G04 APERTURE LIST*
G04 Aperture macros list*
%AMRoundRect*
0 Rectangle with rounded corners*
0 $1 Rounding radius*
0 $2 $3 $4 $5 $6 $7 $8 $9 X,Y pos of 4 corners*
0 Add a 4 corners polygon primitive as box body*
4,1,4,$2,$3,$4,$5,$6,$7,$8,$9,$2,$3,0*
0 Add four circle primitives for the rounded corners*
1,1,$1+$1,$2,$3*
1,1,$1+$1,$4,$5*
1,1,$1+$1,$6,$7*
1,1,$1+$1,$8,$9*
0 Add four rect primitives between the rounded corners*
20,1,$1+$1,$2,$3,$4,$5,0*
20,1,$1+$1,$4,$5,$6,$7,0*
20,1,$1+$1,$6,$7,$8,$9,0*
20,1,$1+$1,$8,$9,$2,$3,0*%
G04 Aperture macros list end*
%ADD10C,0.500000*%
%ADD11RoundRect,0.225000X-0.225000X-0.250000X0.225000X-0.250000X0.225000X0.250000X-0.225000X0.250000X0*%
%ADD12RoundRect,0.375000X-0.375000X-1.625000X0.375000X-1.625000X0.375000X1.625000X-0.375000X1.625000X0*%
%ADD13R,1.200000X0.900000*%
%ADD14O,3.500000X2.200000*%
%ADD15R,2.500000X1.500000*%
%ADD16O,2.500000X1.500000*%
%ADD17RoundRect,0.225000X-4.775000X0.225000X-4.775000X-0.225000X4.775000X-0.225000X4.775000X0.225000X0*%
%ADD18RoundRect,0.200000X-0.275000X0.200000X-0.275000X-0.200000X0.275000X-0.200000X0.275000X0.200000X0*%
%ADD19RoundRect,0.150000X-0.150000X0.587500X-0.150000X-0.587500X0.150000X-0.587500X0.150000X0.587500X0*%
%ADD20RoundRect,0.375000X-1.625000X0.375000X-1.625000X-0.375000X1.625000X-0.375000X1.625000X0.375000X0*%
%ADD21RoundRect,0.250000X0.625000X-0.375000X0.625000X0.375000X-0.625000X0.375000X-0.625000X-0.375000X0*%
%ADD22RoundRect,0.225000X-0.250000X0.225000X-0.250000X-0.225000X0.250000X-0.225000X0.250000X0.225000X0*%
%ADD23RoundRect,0.200000X0.275000X-0.200000X0.275000X0.200000X-0.275000X0.200000X-0.275000X-0.200000X0*%
%ADD24R,0.500000X0.800000*%
%ADD25R,0.400000X0.800000*%
%ADD26RoundRect,0.225000X0.225000X0.250000X-0.225000X0.250000X-0.225000X-0.250000X0.225000X-0.250000X0*%
%ADD27RoundRect,0.243750X-0.456250X0.243750X-0.456250X-0.243750X0.456250X-0.243750X0.456250X0.243750X0*%
%ADD28RoundRect,0.375000X0.375000X4.625000X-0.375000X4.625000X-0.375000X-4.625000X0.375000X-4.625000X0*%
%ADD29R,1.600000X0.550000*%
%ADD30R,0.550000X1.600000*%
%ADD31RoundRect,0.375000X0.375000X1.625000X-0.375000X1.625000X-0.375000X-1.625000X0.375000X-1.625000X0*%
%ADD32R,1.000000X2.750000*%
%ADD33R,0.450000X0.300000*%
%ADD34C,0.700000*%
%ADD35O,0.900000X2.400000*%
%ADD36O,0.900000X1.700000*%
%ADD37R,3.200000X0.400000*%
G04 APERTURE END LIST*
D10*
G04 #@! TO.C,REF\u002A\u002A*
X26724111Y-35251000D03*
G04 #@! TD*
G04 #@! TO.C,REF\u002A\u002A*
X72649003Y-89611555D03*
G04 #@! TD*
G04 #@! TO.C,REF\u002A\u002A*
X71879000Y-58333330D03*
G04 #@! TD*
G04 #@! TO.C,REF\u002A\u002A*
X71879000Y-59999997D03*
G04 #@! TD*
D11*
G04 #@! TO.C,C4*
X35724996Y-53599996D03*
X37274996Y-53599996D03*
G04 #@! TD*
D12*
G04 #@! TO.C,J1*
X37459996Y-82599996D03*
X39999996Y-82599996D03*
X42539996Y-82599996D03*
G04 #@! TD*
D10*
G04 #@! TO.C,REF\u002A\u002A*
X28751000Y-29610555D03*
G04 #@! TD*
G04 #@! TO.C,REF\u002A\u002A*
X75953777Y-35251000D03*
G04 #@! TD*
G04 #@! TO.C,REF\u002A\u002A*
X72649000Y-47066663D03*
G04 #@! TD*
G04 #@! TO.C,REF\u002A\u002A*
X72649000Y-46233330D03*
G04 #@! TD*
G04 #@! TO.C,REF\u002A\u002A*
X79065333Y-35251000D03*
G04 #@! TD*
G04 #@! TO.C,REF\u002A\u002A*
X28751000Y-28832666D03*
G04 #@! TD*
D13*
G04 #@! TO.C,D2*
X34399996Y-70949996D03*
X34399996Y-74249996D03*
G04 #@! TD*
D10*
G04 #@! TO.C,REF\u002A\u002A*
X28751000Y-92723111D03*
G04 #@! TD*
G04 #@! TO.C,REF\u002A\u002A*
X79065333Y-85249004D03*
G04 #@! TD*
D14*
G04 #@! TO.C,SW1*
X47199996Y-52699996D03*
X47199996Y-44499996D03*
D15*
X47199996Y-50599996D03*
D16*
X47199996Y-48599996D03*
X47199996Y-46599996D03*
G04 #@! TD*
D10*
G04 #@! TO.C,REF\u002A\u002A*
X22834666Y-85249004D03*
G04 #@! TD*
G04 #@! TO.C,REF\u002A\u002A*
X28751000Y-28054777D03*
G04 #@! TD*
D17*
G04 #@! TO.C,J14*
X59125003Y-58729997D03*
X59125003Y-59999997D03*
X59125003Y-61269997D03*
G04 #@! TD*
D10*
G04 #@! TO.C,REF\u002A\u002A*
X72649003Y-29610555D03*
G04 #@! TD*
G04 #@! TO.C,REF\u002A\u002A*
X42499996Y-35251000D03*
G04 #@! TD*
G04 #@! TO.C,REF\u002A\u002A*
X28751000Y-88833666D03*
G04 #@! TD*
G04 #@! TO.C,REF\u002A\u002A*
X40099996Y-84749000D03*
G04 #@! TD*
D18*
G04 #@! TO.C,R2*
X42199996Y-42974996D03*
X42199996Y-44624996D03*
G04 #@! TD*
D10*
G04 #@! TO.C,REF\u002A\u002A*
X28751000Y-90389444D03*
G04 #@! TD*
G04 #@! TO.C,REF\u002A\u002A*
X41699996Y-84749000D03*
G04 #@! TD*
G04 #@! TO.C,REF\u002A\u002A*
X38499996Y-84749000D03*
G04 #@! TD*
G04 #@! TO.C,REF\u002A\u002A*
X71879000Y-61666663D03*
G04 #@! TD*
G04 #@! TO.C,REF\u002A\u002A*
X22056777Y-85249004D03*
G04 #@! TD*
G04 #@! TO.C,REF\u002A\u002A*
X25168333Y-35251000D03*
G04 #@! TD*
D19*
G04 #@! TO.C,Q2*
X35949996Y-76862496D03*
X34049996Y-76862496D03*
X34999996Y-78737496D03*
G04 #@! TD*
D10*
G04 #@! TO.C,REF\u002A\u002A*
X75175888Y-85249004D03*
G04 #@! TD*
G04 #@! TO.C,REF\u002A\u002A*
X71879000Y-62499997D03*
G04 #@! TD*
G04 #@! TO.C,REF\u002A\u002A*
X40099996Y-35251000D03*
G04 #@! TD*
G04 #@! TO.C,REF\u002A\u002A*
X28751000Y-87277888D03*
G04 #@! TD*
D20*
G04 #@! TO.C,J7*
X69725003Y-57459997D03*
X69725003Y-59999997D03*
X69725003Y-62539997D03*
G04 #@! TD*
D10*
G04 #@! TO.C,REF\u002A\u002A*
X72649000Y-43733330D03*
G04 #@! TD*
G04 #@! TO.C,REF\u002A\u002A*
X72649003Y-91167333D03*
G04 #@! TD*
D21*
G04 #@! TO.C,F1*
X47599996Y-40599996D03*
X47599996Y-37799996D03*
G04 #@! TD*
D10*
G04 #@! TO.C,REF\u002A\u002A*
X72649003Y-27276888D03*
G04 #@! TD*
G04 #@! TO.C,REF\u002A\u002A*
X72649003Y-31944222D03*
G04 #@! TD*
G04 #@! TO.C,REF\u002A\u002A*
X28751000Y-27276888D03*
G04 #@! TD*
G04 #@! TO.C,REF\u002A\u002A*
X41699996Y-35251000D03*
G04 #@! TD*
G04 #@! TO.C,REF\u002A\u002A*
X24390444Y-35251000D03*
G04 #@! TD*
G04 #@! TO.C,REF\u002A\u002A*
X28751000Y-88055777D03*
G04 #@! TD*
G04 #@! TO.C,REF\u002A\u002A*
X26724111Y-85249004D03*
G04 #@! TD*
G04 #@! TO.C,REF\u002A\u002A*
X60000003Y-83879000D03*
G04 #@! TD*
D22*
G04 #@! TO.C,C3*
X33599996Y-60449996D03*
X33599996Y-61999996D03*
G04 #@! TD*
D10*
G04 #@! TO.C,REF\u002A\u002A*
X75175888Y-35251000D03*
G04 #@! TD*
D23*
G04 #@! TO.C,R4*
X46999996Y-61824996D03*
X46999996Y-60174996D03*
G04 #@! TD*
D10*
G04 #@! TO.C,REF\u002A\u002A*
X71879000Y-59166663D03*
G04 #@! TD*
D13*
G04 #@! TO.C,D1*
X46999996Y-55349996D03*
X46999996Y-58649996D03*
G04 #@! TD*
D10*
G04 #@! TO.C,REF\u002A\u002A*
X78287444Y-35251000D03*
G04 #@! TD*
G04 #@! TO.C,REF\u002A\u002A*
X72649000Y-47899997D03*
G04 #@! TD*
D24*
G04 #@! TO.C,RN1*
X41199996Y-76899996D03*
D25*
X40399996Y-76899996D03*
X39599996Y-76899996D03*
D24*
X38799996Y-76899996D03*
X38799996Y-78699996D03*
D25*
X39599996Y-78699996D03*
X40399996Y-78699996D03*
D24*
X41199996Y-78699996D03*
G04 #@! TD*
D20*
G04 #@! TO.C,J5*
X70450003Y-42459997D03*
X70450003Y-44999997D03*
X70450003Y-47539997D03*
G04 #@! TD*
D19*
G04 #@! TO.C,Q1*
X45949996Y-76862496D03*
X44049996Y-76862496D03*
X44999996Y-78737496D03*
G04 #@! TD*
D10*
G04 #@! TO.C,REF\u002A\u002A*
X72649003Y-28054777D03*
G04 #@! TD*
G04 #@! TO.C,REF\u002A\u002A*
X42499996Y-84749000D03*
G04 #@! TD*
G04 #@! TO.C,REF\u002A\u002A*
X72649003Y-91945222D03*
G04 #@! TD*
D18*
G04 #@! TO.C,R5*
X35799996Y-46574996D03*
X35799996Y-48224996D03*
G04 #@! TD*
D10*
G04 #@! TO.C,REF\u002A\u002A*
X25168333Y-85249004D03*
G04 #@! TD*
D26*
G04 #@! TO.C,C2*
X34274996Y-53599996D03*
X32724996Y-53599996D03*
G04 #@! TD*
D27*
G04 #@! TO.C,D4*
X39999996Y-46462496D03*
X39999996Y-48337496D03*
G04 #@! TD*
D10*
G04 #@! TO.C,REF\u002A\u002A*
X72649003Y-32722111D03*
G04 #@! TD*
G04 #@! TO.C,REF\u002A\u002A*
X72649003Y-87277888D03*
G04 #@! TD*
G04 #@! TO.C,REF\u002A\u002A*
X72649003Y-92723111D03*
G04 #@! TD*
D28*
G04 #@! TO.C,J11*
X62540003Y-71125003D03*
X60000003Y-71125003D03*
X57460003Y-71125003D03*
G04 #@! TD*
D10*
G04 #@! TO.C,REF\u002A\u002A*
X28751000Y-31944222D03*
G04 #@! TD*
G04 #@! TO.C,REF\u002A\u002A*
X72649003Y-88055777D03*
G04 #@! TD*
G04 #@! TO.C,REF\u002A\u002A*
X76731666Y-35251000D03*
G04 #@! TD*
G04 #@! TO.C,REF\u002A\u002A*
X72649003Y-31166333D03*
G04 #@! TD*
D23*
G04 #@! TO.C,R8*
X37799996Y-51624996D03*
X37799996Y-49974996D03*
G04 #@! TD*
D10*
G04 #@! TO.C,REF\u002A\u002A*
X21278888Y-85249004D03*
G04 #@! TD*
D29*
G04 #@! TO.C,U1*
X35749996Y-57199996D03*
X35749996Y-57999996D03*
X35749996Y-58799996D03*
X35749996Y-59599996D03*
X35749996Y-60399996D03*
X35749996Y-61199996D03*
X35749996Y-61999996D03*
X35749996Y-62799996D03*
D30*
X37199996Y-64249996D03*
X37999996Y-64249996D03*
X38799996Y-64249996D03*
X39599996Y-64249996D03*
X40399996Y-64249996D03*
X41199996Y-64249996D03*
X41999996Y-64249996D03*
X42799996Y-64249996D03*
D29*
X44249996Y-62799996D03*
X44249996Y-61999996D03*
X44249996Y-61199996D03*
X44249996Y-60399996D03*
X44249996Y-59599996D03*
X44249996Y-58799996D03*
X44249996Y-57999996D03*
X44249996Y-57199996D03*
D30*
X42799996Y-55749996D03*
X41999996Y-55749996D03*
X41199996Y-55749996D03*
X40399996Y-55749996D03*
X39599996Y-55749996D03*
X38799996Y-55749996D03*
X37999996Y-55749996D03*
X37199996Y-55749996D03*
G04 #@! TD*
D10*
G04 #@! TO.C,REF\u002A\u002A*
X40899996Y-84749000D03*
G04 #@! TD*
G04 #@! TO.C,REF\u002A\u002A*
X24390444Y-85249004D03*
G04 #@! TD*
D27*
G04 #@! TO.C,D3*
X37799996Y-46462496D03*
X37799996Y-48337496D03*
G04 #@! TD*
D10*
G04 #@! TO.C,REF\u002A\u002A*
X72649000Y-45399997D03*
G04 #@! TD*
G04 #@! TO.C,REF\u002A\u002A*
X23612555Y-85249004D03*
G04 #@! TD*
G04 #@! TO.C,REF\u002A\u002A*
X72649003Y-90389444D03*
G04 #@! TD*
D31*
G04 #@! TO.C,J3*
X62540003Y-81725003D03*
X60000003Y-81725003D03*
X57460003Y-81725003D03*
G04 #@! TD*
D10*
G04 #@! TO.C,REF\u002A\u002A*
X23612555Y-35251000D03*
G04 #@! TD*
G04 #@! TO.C,REF\u002A\u002A*
X72649003Y-30388444D03*
G04 #@! TD*
G04 #@! TO.C,REF\u002A\u002A*
X57500003Y-83879000D03*
G04 #@! TD*
G04 #@! TO.C,REF\u002A\u002A*
X22834666Y-35251000D03*
G04 #@! TD*
D23*
G04 #@! TO.C,R9*
X39999996Y-51624996D03*
X39999996Y-49974996D03*
G04 #@! TD*
D10*
G04 #@! TO.C,REF\u002A\u002A*
X78287444Y-85249004D03*
G04 #@! TD*
G04 #@! TO.C,REF\u002A\u002A*
X21278888Y-35251000D03*
G04 #@! TD*
D32*
G04 #@! TO.C,SW2*
X41999996Y-73579996D03*
X41999996Y-67819996D03*
X37999996Y-67819996D03*
X37999996Y-73579996D03*
G04 #@! TD*
D10*
G04 #@! TO.C,REF\u002A\u002A*
X28751000Y-30388444D03*
G04 #@! TD*
G04 #@! TO.C,REF\u002A\u002A*
X72649000Y-44566663D03*
G04 #@! TD*
G04 #@! TO.C,REF\u002A\u002A*
X22056777Y-35251000D03*
G04 #@! TD*
D18*
G04 #@! TO.C,R3*
X43699996Y-42974996D03*
X43699996Y-44624996D03*
G04 #@! TD*
D10*
G04 #@! TO.C,REF\u002A\u002A*
X60833336Y-83879000D03*
G04 #@! TD*
G04 #@! TO.C,REF\u002A\u002A*
X71879000Y-60833330D03*
G04 #@! TD*
D27*
G04 #@! TO.C,D5*
X42199996Y-46462496D03*
X42199996Y-48337496D03*
G04 #@! TD*
D18*
G04 #@! TO.C,R6*
X34199996Y-46574996D03*
X34199996Y-48224996D03*
G04 #@! TD*
D10*
G04 #@! TO.C,REF\u002A\u002A*
X80621111Y-85249004D03*
G04 #@! TD*
G04 #@! TO.C,REF\u002A\u002A*
X28751000Y-89611555D03*
G04 #@! TD*
G04 #@! TO.C,REF\u002A\u002A*
X79843222Y-35251000D03*
G04 #@! TD*
D33*
G04 #@! TO.C,IC1*
X37799996Y-43799996D03*
X37799996Y-43299996D03*
X37799996Y-42799996D03*
X36399996Y-42799996D03*
X36399996Y-43299996D03*
X36399996Y-43799996D03*
G04 #@! TD*
D10*
G04 #@! TO.C,REF\u002A\u002A*
X76731666Y-85249004D03*
G04 #@! TD*
D23*
G04 #@! TO.C,R7*
X34399996Y-69224996D03*
X34399996Y-67574996D03*
G04 #@! TD*
D10*
G04 #@! TO.C,REF\u002A\u002A*
X72649000Y-42899997D03*
G04 #@! TD*
G04 #@! TO.C,REF\u002A\u002A*
X39299996Y-84749000D03*
G04 #@! TD*
G04 #@! TO.C,REF\u002A\u002A*
X58333336Y-83879000D03*
G04 #@! TD*
G04 #@! TO.C,REF\u002A\u002A*
X28751000Y-32722111D03*
G04 #@! TD*
G04 #@! TO.C,REF\u002A\u002A*
X28751000Y-91945222D03*
G04 #@! TD*
G04 #@! TO.C,REF\u002A\u002A*
X72649003Y-88833666D03*
G04 #@! TD*
G04 #@! TO.C,REF\u002A\u002A*
X25946222Y-85249004D03*
G04 #@! TD*
D18*
G04 #@! TO.C,R1*
X40699996Y-42974996D03*
X40699996Y-44624996D03*
G04 #@! TD*
D34*
G04 #@! TO.C,J9*
X42974996Y-41024996D03*
X42124996Y-41024996D03*
X41274996Y-41024996D03*
X40424996Y-41024996D03*
X39574996Y-41024996D03*
X38724996Y-41024996D03*
X37874996Y-41024996D03*
X37024996Y-41024996D03*
X37024996Y-39674996D03*
X37874996Y-39674996D03*
X38724996Y-39674996D03*
X39574996Y-39674996D03*
X40424996Y-39674996D03*
X41274996Y-39674996D03*
X42124996Y-39674996D03*
X42974996Y-39674996D03*
D35*
X44324996Y-40044996D03*
D36*
X44324996Y-36664996D03*
X35674996Y-36664996D03*
D35*
X35674996Y-40044996D03*
G04 #@! TD*
D10*
G04 #@! TO.C,REF\u002A\u002A*
X38499996Y-35251000D03*
G04 #@! TD*
D17*
G04 #@! TO.C,J13*
X58100003Y-41824997D03*
X58100003Y-43094997D03*
X58100003Y-44364997D03*
X58100003Y-45634997D03*
X58100003Y-46904997D03*
X58100003Y-48174997D03*
G04 #@! TD*
D10*
G04 #@! TO.C,REF\u002A\u002A*
X62500003Y-83879000D03*
G04 #@! TD*
G04 #@! TO.C,REF\u002A\u002A*
X28751000Y-91167333D03*
G04 #@! TD*
G04 #@! TO.C,REF\u002A\u002A*
X61666669Y-83879000D03*
G04 #@! TD*
G04 #@! TO.C,REF\u002A\u002A*
X77509555Y-35251000D03*
G04 #@! TD*
G04 #@! TO.C,REF\u002A\u002A*
X25946222Y-35251000D03*
G04 #@! TD*
D37*
G04 #@! TO.C,Y1*
X32399996Y-58799996D03*
X32399996Y-57599996D03*
X32399996Y-56399996D03*
G04 #@! TD*
D11*
G04 #@! TO.C,C1*
X42049996Y-53599996D03*
X43599996Y-53599996D03*
G04 #@! TD*
D10*
G04 #@! TO.C,REF\u002A\u002A*
X72649003Y-28832666D03*
G04 #@! TD*
G04 #@! TO.C,REF\u002A\u002A*
X77509555Y-85249004D03*
G04 #@! TD*
G04 #@! TO.C,REF\u002A\u002A*
X39299996Y-35251000D03*
G04 #@! TD*
G04 #@! TO.C,REF\u002A\u002A*
X71879000Y-57499997D03*
G04 #@! TD*
G04 #@! TO.C,REF\u002A\u002A*
X75953777Y-85249004D03*
G04 #@! TD*
G04 #@! TO.C,REF\u002A\u002A*
X28751000Y-31166333D03*
G04 #@! TD*
G04 #@! TO.C,REF\u002A\u002A*
X59166669Y-83879000D03*
G04 #@! TD*
G04 #@! TO.C,REF\u002A\u002A*
X80621111Y-35251000D03*
G04 #@! TD*
G04 #@! TO.C,REF\u002A\u002A*
X79843222Y-85249004D03*
G04 #@! TD*
G04 #@! TO.C,REF\u002A\u002A*
X40899996Y-35251000D03*
G04 #@! TD*
D23*
G04 #@! TO.C,R10*
X42199996Y-51624996D03*
X42199996Y-49974996D03*
G04 #@! TD*
M02*
