M48
; DRILL file {KiCad 6.0.2-378541a8eb~116~ubuntu20.04.1} date Mon Feb 28 16:15:05 2022
; FORMAT={-:-/ absolute / metric / decimal}
; #@! TF.CreationDate,2022-02-28T16:15:05+01:00
; #@! TF.GenerationSoftware,Kicad,Pcbnew,6.0.2-378541a8eb~116~ubuntu20.04.1
; #@! TF.FileFunction,MixedPlating,1,2
FMAT,2
METRIC
; #@! TA.AperFunction,Plated,PTH,ViaDrill
T1C0.400
; #@! TA.AperFunction,Plated,PTH,ComponentDrill
T2C0.400
; #@! TA.AperFunction,Plated,PTH,ComponentDrill
T3C0.600
; #@! TA.AperFunction,Plated,PTH,ComponentDrill
T4C0.900
; #@! TA.AperFunction,Plated,PTH,ComponentDrill
T5C1.500
; #@! TA.AperFunction,NonPlated,NPTH,ComponentDrill
T6C0.500
%
G90
G05
T1
X31.8Y-44.8
X31.8Y-62.0
X31.8Y-75.0
X32.7Y-54.9
X35.0Y-52.3
X35.0Y-76.0
X35.579Y-43.587
X35.9Y-74.6
X37.2Y-60.4
X37.46Y-77.74
X37.7Y-57.7
X38.0Y-71.2
X38.2Y-54.0
X39.2Y-45.1
X39.7Y-67.8
X39.998Y-59.701
X40.0Y-57.9
X40.0Y-62.6
X40.005Y-60.856
X40.4Y-54.0
X41.1Y-42.1
X42.0Y-65.7
X42.425Y-57.844
X43.0Y-75.9
X43.6Y-54.5
X44.3Y-56.3
X45.0Y-65.7
X45.3Y-74.6
X46.7Y-73.2
X47.0Y-57.2
X47.6Y-41.7
X48.2Y-55.4
X48.2Y-61.8
X48.8Y-77.0
X64.3Y-41.8
X64.3Y-43.0
X64.3Y-44.4
X64.3Y-46.9
X65.7Y-45.6
X70.85Y-49.5
T2
X37.025Y-39.675
X37.025Y-41.025
X37.875Y-39.675
X37.875Y-41.025
X38.725Y-39.675
X38.725Y-41.025
X39.575Y-39.675
X39.575Y-41.025
X40.425Y-39.675
X40.425Y-41.025
X41.275Y-39.675
X41.275Y-41.025
X42.125Y-39.675
X42.125Y-41.025
X42.975Y-39.675
X42.975Y-41.025
T4
X47.2Y-46.6
X47.2Y-48.6
X47.2Y-50.6
T5
X47.2Y-44.5
X47.2Y-52.7
T6
X21.279Y-35.251
X21.279Y-85.249
X22.057Y-35.251
X22.057Y-85.249
X22.835Y-35.251
X22.835Y-85.249
X23.613Y-35.251
X23.613Y-85.249
X24.39Y-35.251
X24.39Y-85.249
X25.168Y-35.251
X25.168Y-85.249
X25.946Y-35.251
X25.946Y-85.249
X26.724Y-35.251
X26.724Y-85.249
X28.751Y-27.277
X28.751Y-28.055
X28.751Y-28.833
X28.751Y-29.611
X28.751Y-30.388
X28.751Y-31.166
X28.751Y-31.944
X28.751Y-32.722
X28.751Y-87.278
X28.751Y-88.056
X28.751Y-88.834
X28.751Y-89.612
X28.751Y-90.389
X28.751Y-91.167
X28.751Y-91.945
X28.751Y-92.723
X38.5Y-35.251
X38.5Y-84.749
X39.3Y-35.251
X39.3Y-84.749
X40.1Y-35.251
X40.1Y-84.749
X40.9Y-35.251
X40.9Y-84.749
X41.7Y-35.251
X41.7Y-84.749
X42.5Y-35.251
X42.5Y-84.749
X57.5Y-83.879
X58.333Y-83.879
X59.167Y-83.879
X60.0Y-83.879
X60.833Y-83.879
X61.667Y-83.879
X62.5Y-83.879
X71.879Y-57.5
X71.879Y-58.333
X71.879Y-59.167
X71.879Y-60.0
X71.879Y-60.833
X71.879Y-61.667
X71.879Y-62.5
X72.649Y-42.9
X72.649Y-43.733
X72.649Y-44.567
X72.649Y-45.4
X72.649Y-46.233
X72.649Y-47.067
X72.649Y-47.9
X72.649Y-27.277
X72.649Y-28.055
X72.649Y-28.833
X72.649Y-29.611
X72.649Y-30.388
X72.649Y-31.166
X72.649Y-31.944
X72.649Y-32.722
X72.649Y-87.278
X72.649Y-88.056
X72.649Y-88.834
X72.649Y-89.612
X72.649Y-90.389
X72.649Y-91.167
X72.649Y-91.945
X72.649Y-92.723
X75.176Y-35.251
X75.176Y-85.249
X75.954Y-35.251
X75.954Y-85.249
X76.732Y-35.251
X76.732Y-85.249
X77.51Y-35.251
X77.51Y-85.249
X78.287Y-35.251
X78.287Y-85.249
X79.065Y-35.251
X79.065Y-85.249
X79.843Y-35.251
X79.843Y-85.249
X80.621Y-35.251
X80.621Y-85.249
T3
X35.675Y-37.065G85X35.675Y-36.265
G05
X35.675Y-40.795G85X35.675Y-39.295
G05
X44.325Y-37.065G85X44.325Y-36.265
G05
X44.325Y-40.795G85X44.325Y-39.295
G05
T0
M30
